<svg width="56" height="56" viewBox="0 0 56 56" fill="none" xmlns="http://www.w3.org/2000/svg">
<g clip-path="url(#clip0_1316_6967)">
<path d="M6.58665 29.3291C6.58665 29.3291 11.9957 17.3671 25.5185 17.3671C39.0412 17.3671 44.4503 29.3291 44.4503 29.3291M6.58665 29.3291C6.58665 29.3291 11.9957 41.2911 25.5185 41.2911C39.0412 41.2911 44.4503 29.3291 44.4503 29.3291M6.58665 29.3291C5.04119 31.9873 3.10938 39.962 3.10938 43M44.4503 29.3291C48.1594 22.6456 49.8594 15.6582 50.2457 13M50.2457 13L43.6776 16.7975M50.2457 13L54.1094 18.3165" stroke="#FAFAFA" stroke-width="3" stroke-linecap="round" stroke-linejoin="round"/>
<path d="M25.6094 35C28.6469 35 31.1094 32.5376 31.1094 29.5C31.1094 26.4624 28.6469 24 25.6094 24C22.5718 24 20.1094 26.4624 20.1094 29.5C20.1094 32.5376 22.5718 35 25.6094 35Z" stroke="#FAFAFA" stroke-width="3" stroke-linecap="round" stroke-linejoin="round"/>
</g>
<defs>
<clipPath id="clip0_1316_6967">
<rect width="56" height="56" fill="white"/>
</clipPath>
</defs>
</svg>
