<svg width="343" height="175" viewBox="0 0 343 175" fill="none" xmlns="http://www.w3.org/2000/svg">
<rect width="343" height="175" rx="22" fill="#F9F8F4"/>
<g opacity="0.5" clip-path="url(#clip0_3933_13266)">
<path d="M36.0008 73.4248C36.0008 74.3439 35.2533 75.0914 34.3342 75.0914H29.2125C27.7642 75.0914 26.3808 74.4548 25.4158 73.3448C22.7858 70.3156 20.4325 68.3114 19.1183 67.9823C17.1658 67.4948 16 66.1664 16 64.4298C16 62.9506 16.8567 62.2414 17.545 61.6714C17.9517 61.3348 18.3358 61.0164 18.58 60.5423L20.9908 55.5531C21.1908 55.1381 21.6883 54.9656 22.1033 55.1648C22.5175 55.3648 22.6917 55.8631 22.4908 56.2773L20.0708 61.2873C19.6608 62.0839 19.0767 62.5681 18.6067 62.9573C17.955 63.4964 17.6667 63.7639 17.6667 64.4314C17.6667 65.6481 18.6758 66.1556 19.5225 66.3673C21.7917 66.9339 24.9767 70.2981 26.6742 72.2523C27.3217 72.9981 28.2475 73.4248 29.2125 73.4248H32.6167C31.8467 73.4248 31.14 73.0898 30.6783 72.5048C29.3467 70.8189 28.4675 69.0281 27.6917 67.4489C27.1808 66.4089 26.6992 65.4264 26.145 64.5814C25.4875 63.5764 25.3875 62.3539 25.8783 61.3114L28.58 55.5698C28.7758 55.1523 29.2733 54.9756 29.6892 55.1706C30.1058 55.3664 30.2842 55.8631 30.0883 56.2798L27.3867 62.0206C27.1442 62.5348 27.2017 63.1506 27.5408 63.6681C28.15 64.6006 28.6542 65.6273 29.1883 66.7139C29.9642 68.2931 30.7658 69.9256 31.9875 71.4723C32.1292 71.6523 32.365 71.7589 32.6175 71.7589H34.3342C35.2533 71.7589 36.0008 72.5056 36.0008 73.4248Z" fill="#1E1E1E"/>
</g>
<path d="M44.608 60.8508V59.5228H47.616V71.0908H46.144V60.8508H44.608ZM49.621 69.9228C50.9757 68.8348 52.037 67.9442 52.805 67.2508C53.573 66.5468 54.2183 65.8162 54.741 65.0588C55.2743 64.2908 55.541 63.5388 55.541 62.8028C55.541 62.1095 55.3703 61.5655 55.029 61.1708C54.6983 60.7655 54.1597 60.5628 53.413 60.5628C52.6877 60.5628 52.1223 60.7922 51.717 61.2508C51.3223 61.6988 51.109 62.3015 51.077 63.0588H49.669C49.7117 61.8642 50.0743 60.9415 50.757 60.2908C51.4397 59.6402 52.3197 59.3148 53.397 59.3148C54.4957 59.3148 55.365 59.6188 56.005 60.2268C56.6557 60.8348 56.981 61.6722 56.981 62.7388C56.981 63.6242 56.7143 64.4882 56.181 65.3308C55.6583 66.1628 55.061 66.8988 54.389 67.5388C53.717 68.1682 52.8583 68.9042 51.813 69.7468H57.317V70.9628H49.621V69.9228ZM58.2961 60.8508V59.5228H61.3041V71.0908H59.8321V60.8508H58.2961ZM63.3091 69.9228C64.6638 68.8348 65.7251 67.9442 66.4931 67.2508C67.2611 66.5468 67.9065 65.8162 68.4291 65.0588C68.9625 64.2908 69.2291 63.5388 69.2291 62.8028C69.2291 62.1095 69.0585 61.5655 68.7171 61.1708C68.3865 60.7655 67.8478 60.5628 67.1011 60.5628C66.3758 60.5628 65.8105 60.7922 65.4051 61.2508C65.0105 61.6988 64.7971 62.3015 64.7651 63.0588H63.3571C63.3998 61.8642 63.7625 60.9415 64.4451 60.2908C65.1278 59.6402 66.0078 59.3148 67.0851 59.3148C68.1838 59.3148 69.0531 59.6188 69.6931 60.2268C70.3438 60.8348 70.6691 61.6722 70.6691 62.7388C70.6691 63.6242 70.4025 64.4882 69.8691 65.3308C69.3465 66.1628 68.7491 66.8988 68.0771 67.5388C67.4051 68.1682 66.5465 68.9042 65.5011 69.7468H71.0051V70.9628H63.3091V69.9228ZM80.0899 71.2028C79.3539 71.2028 78.6925 71.0748 78.1059 70.8188C77.5299 70.5522 77.0765 70.1895 76.7459 69.7308C76.4152 69.2615 76.2445 68.7228 76.2339 68.1148H77.7859C77.8392 68.6375 78.0525 69.0802 78.4259 69.4428C78.8099 69.7948 79.3645 69.9708 80.0899 69.9708C80.7832 69.9708 81.3272 69.8002 81.7219 69.4588C82.1272 69.1068 82.3299 68.6588 82.3299 68.1148C82.3299 67.6882 82.2125 67.3415 81.9779 67.0748C81.7432 66.8082 81.4499 66.6055 81.0979 66.4668C80.7459 66.3282 80.2712 66.1788 79.6739 66.0188C78.9379 65.8268 78.3459 65.6348 77.8979 65.4428C77.4605 65.2508 77.0819 64.9522 76.7619 64.5468C76.4525 64.1308 76.2979 63.5762 76.2979 62.8828C76.2979 62.2748 76.4525 61.7362 76.7619 61.2668C77.0712 60.7975 77.5032 60.4348 78.0579 60.1788C78.6232 59.9228 79.2685 59.7948 79.9939 59.7948C81.0392 59.7948 81.8925 60.0562 82.5539 60.5788C83.2259 61.1015 83.6045 61.7948 83.6899 62.6588H82.0899C82.0365 62.2322 81.8125 61.8588 81.4179 61.5388C81.0232 61.2082 80.5005 61.0428 79.8499 61.0428C79.2419 61.0428 78.7459 61.2028 78.3619 61.5228C77.9779 61.8322 77.7859 62.2695 77.7859 62.8348C77.7859 63.2402 77.8979 63.5708 78.1219 63.8268C78.3565 64.0828 78.6392 64.2802 78.9699 64.4188C79.3112 64.5468 79.7859 64.6962 80.3939 64.8668C81.1299 65.0695 81.7219 65.2722 82.1699 65.4748C82.6179 65.6668 83.0019 65.9708 83.3219 66.3868C83.6419 66.7922 83.8019 67.3468 83.8019 68.0508C83.8019 68.5948 83.6579 69.1068 83.3699 69.5868C83.0819 70.0668 82.6552 70.4562 82.0899 70.7548C81.5245 71.0535 80.8579 71.2028 80.0899 71.2028ZM87.4005 63.5228V68.6908C87.4005 69.1175 87.4912 69.4215 87.6725 69.6028C87.8538 69.7735 88.1685 69.8588 88.6165 69.8588H89.6885V71.0908H88.3765C87.5658 71.0908 86.9578 70.9042 86.5525 70.5308C86.1472 70.1575 85.9445 69.5442 85.9445 68.6908V63.5228H84.8085V62.3228H85.9445V60.1148H87.4005V62.3228H89.6885V63.5228H87.4005ZM99.1326 66.3708C99.1326 66.6482 99.1166 66.9415 99.0846 67.2508H92.0766C92.13 68.1148 92.4233 68.7922 92.9566 69.2828C93.5006 69.7628 94.1566 70.0028 94.9246 70.0028C95.554 70.0028 96.0766 69.8588 96.4926 69.5708C96.9193 69.2722 97.218 68.8775 97.3886 68.3868H98.9566C98.722 69.2295 98.2526 69.9175 97.5486 70.4508C96.8446 70.9735 95.97 71.2348 94.9246 71.2348C94.0926 71.2348 93.346 71.0482 92.6846 70.6748C92.034 70.3015 91.522 69.7735 91.1486 69.0908C90.7753 68.3975 90.5886 67.5975 90.5886 66.6908C90.5886 65.7842 90.77 64.9895 91.1326 64.3068C91.4953 63.6242 92.002 63.1015 92.6526 62.7388C93.314 62.3655 94.0713 62.1788 94.9246 62.1788C95.7566 62.1788 96.4926 62.3602 97.1326 62.7228C97.7726 63.0855 98.2633 63.5868 98.6046 64.2268C98.9566 64.8562 99.1326 65.5708 99.1326 66.3708ZM97.6286 66.0668C97.6286 65.5122 97.506 65.0375 97.2606 64.6428C97.0153 64.2375 96.6793 63.9335 96.2526 63.7308C95.8366 63.5175 95.3726 63.4108 94.8606 63.4108C94.1246 63.4108 93.4953 63.6455 92.9726 64.1148C92.4606 64.5842 92.1673 65.2348 92.0926 66.0668H97.6286ZM102.19 63.9388C102.478 63.4375 102.905 63.0215 103.47 62.6908C104.046 62.3495 104.713 62.1788 105.47 62.1788C106.249 62.1788 106.953 62.3655 107.582 62.7388C108.222 63.1122 108.724 63.6402 109.086 64.3228C109.449 64.9948 109.63 65.7788 109.63 66.6748C109.63 67.5602 109.449 68.3495 109.086 69.0428C108.724 69.7362 108.222 70.2748 107.582 70.6588C106.953 71.0428 106.249 71.2348 105.47 71.2348C104.724 71.2348 104.062 71.0695 103.486 70.7388C102.921 70.3975 102.489 69.9762 102.19 69.4748V75.2508H100.734V62.3228H102.19V63.9388ZM108.142 66.6748C108.142 66.0135 108.009 65.4375 107.742 64.9468C107.476 64.4562 107.113 64.0828 106.654 63.8268C106.206 63.5708 105.71 63.4428 105.166 63.4428C104.633 63.4428 104.137 63.5762 103.678 63.8428C103.23 64.0988 102.868 64.4775 102.59 64.9788C102.324 65.4695 102.19 66.0402 102.19 66.6908C102.19 67.3522 102.324 67.9335 102.59 68.4348C102.868 68.9255 103.23 69.3042 103.678 69.5708C104.137 69.8268 104.633 69.9548 105.166 69.9548C105.71 69.9548 106.206 69.8268 106.654 69.5708C107.113 69.3042 107.476 68.9255 107.742 68.4348C108.009 67.9335 108.142 67.3468 108.142 66.6748ZM114.331 71.2348C113.659 71.2348 113.056 71.1228 112.523 70.8988C111.99 70.6642 111.568 70.3442 111.259 69.9388C110.95 69.5228 110.779 69.0482 110.747 68.5148H112.251C112.294 68.9522 112.496 69.3095 112.859 69.5868C113.232 69.8642 113.718 70.0028 114.315 70.0028C114.87 70.0028 115.307 69.8802 115.627 69.6348C115.947 69.3895 116.107 69.0802 116.107 68.7068C116.107 68.3228 115.936 68.0402 115.595 67.8588C115.254 67.6668 114.726 67.4802 114.011 67.2988C113.36 67.1282 112.827 66.9575 112.411 66.7868C112.006 66.6055 111.654 66.3442 111.355 66.0028C111.067 65.6508 110.923 65.1922 110.923 64.6268C110.923 64.1788 111.056 63.7682 111.323 63.3948C111.59 63.0215 111.968 62.7282 112.459 62.5148C112.95 62.2908 113.51 62.1788 114.139 62.1788C115.11 62.1788 115.894 62.4242 116.491 62.9148C117.088 63.4055 117.408 64.0775 117.451 64.9308H115.995C115.963 64.4722 115.776 64.1042 115.435 63.8268C115.104 63.5495 114.656 63.4108 114.091 63.4108C113.568 63.4108 113.152 63.5228 112.843 63.7468C112.534 63.9708 112.379 64.2642 112.379 64.6268C112.379 64.9148 112.47 65.1548 112.651 65.3468C112.843 65.5282 113.078 65.6775 113.355 65.7948C113.643 65.9015 114.038 66.0242 114.539 66.1628C115.168 66.3335 115.68 66.5042 116.075 66.6748C116.47 66.8348 116.806 67.0802 117.083 67.4108C117.371 67.7415 117.52 68.1735 117.531 68.7068C117.531 69.1868 117.398 69.6188 117.131 70.0028C116.864 70.3868 116.486 70.6908 115.995 70.9148C115.515 71.1282 114.96 71.2348 114.331 71.2348Z" fill="#1E1E1E"/>
<g opacity="0.5" clip-path="url(#clip1_3933_13266)">
<path d="M35.166 105.091C35.166 105.312 35.0782 105.524 34.9219 105.68C34.7657 105.836 34.5537 105.924 34.3327 105.924H31.941C31.5104 105.923 31.0874 105.811 30.7125 105.599C30.3376 105.387 30.0235 105.082 29.8002 104.714L28.6602 102.822L27.421 105.841C27.3795 105.942 27.3185 106.034 27.2414 106.112C27.1644 106.19 27.0727 106.251 26.9718 106.294C26.8708 106.336 26.7626 106.358 26.6531 106.358C26.5437 106.359 26.4352 106.338 26.3339 106.296C26.2326 106.255 26.1405 106.194 26.0628 106.117C25.9851 106.04 25.9234 105.948 25.8811 105.847C25.8388 105.746 25.8168 105.638 25.8164 105.528C25.8159 105.419 25.837 105.31 25.8785 105.209L27.2952 101.757H25.6793L23.9593 105.951C23.8849 106.132 23.8766 106.334 23.9361 106.52C23.9955 106.707 24.1188 106.867 24.2843 106.972L28.111 109.388C28.2297 109.463 28.3275 109.567 28.3953 109.69C28.4632 109.813 28.499 109.951 28.4993 110.091V114.257C28.4993 114.479 28.4116 114.69 28.2553 114.847C28.099 115.003 27.887 115.091 27.666 115.091C27.445 115.091 27.233 115.003 27.0768 114.847C26.9205 114.69 26.8327 114.479 26.8327 114.257V110.55L23.3943 108.383C22.8966 108.069 22.5256 107.59 22.3466 107.029C22.1677 106.468 22.1922 105.863 22.416 105.318L23.8777 101.757H22.0293C21.8746 101.757 21.7228 101.8 21.5911 101.881C21.4594 101.962 21.3532 102.079 21.2843 102.217L20.0785 104.63C20.0296 104.728 19.9619 104.815 19.8792 104.887C19.7965 104.959 19.7005 105.014 19.5967 105.048C19.4928 105.083 19.3832 105.097 19.274 105.089C19.1647 105.081 19.0581 105.052 18.9602 105.003C18.8622 104.954 18.7749 104.887 18.7031 104.804C18.6314 104.721 18.5766 104.625 18.5419 104.521C18.5072 104.418 18.4934 104.308 18.5011 104.199C18.5088 104.09 18.5379 103.983 18.5868 103.885L19.7935 101.468C20.0005 101.053 20.3196 100.704 20.7148 100.46C21.1099 100.217 21.5653 100.089 22.0293 100.091H27.5485C27.9795 100.092 28.4029 100.204 28.778 100.416C29.1532 100.628 29.4676 100.933 29.691 101.302L31.2277 103.854C31.3021 103.977 31.4068 104.078 31.5317 104.149C31.6566 104.22 31.7975 104.257 31.941 104.257H34.3327C34.5537 104.257 34.7657 104.345 34.9219 104.502C35.0782 104.658 35.166 104.87 35.166 105.091ZM22.5618 109.102C22.4602 109.062 22.3516 109.042 22.2422 109.043C22.1327 109.044 22.0246 109.067 21.924 109.11C21.8234 109.153 21.7323 109.216 21.6559 109.294C21.5794 109.372 21.5192 109.465 21.4785 109.567C21.4173 109.722 21.3106 109.855 21.1725 109.948C21.0343 110.042 20.8712 110.092 20.7043 110.091H18.4993C18.2783 110.091 18.0664 110.179 17.9101 110.335C17.7538 110.491 17.666 110.703 17.666 110.924C17.666 111.145 17.7538 111.357 17.9101 111.513C18.0664 111.67 18.2783 111.757 18.4993 111.757H20.7043C21.2044 111.759 21.6934 111.61 22.1075 111.33C22.5216 111.049 22.8417 110.651 23.026 110.186C23.0667 110.084 23.0869 109.976 23.0856 109.866C23.0843 109.757 23.0614 109.649 23.0183 109.548C22.9752 109.447 22.9127 109.356 22.8344 109.28C22.7561 109.203 22.6635 109.143 22.5618 109.102ZM28.4993 99.2575C28.9114 99.2575 29.3142 99.1353 29.6568 98.9064C29.9994 98.6775 30.2664 98.3521 30.4241 97.9714C30.5818 97.5907 30.623 97.1718 30.5427 96.7677C30.4623 96.3636 30.2638 95.9924 29.9725 95.701C29.6811 95.4097 29.3099 95.2112 28.9058 95.1309C28.5017 95.0505 28.0828 95.0917 27.7021 95.2494C27.3214 95.4071 26.996 95.6741 26.7671 96.0167C26.5382 96.3593 26.416 96.7621 26.416 97.1742C26.416 97.7267 26.6355 98.2566 27.0262 98.6473C27.4169 99.038 27.9468 99.2575 28.4993 99.2575Z" fill="#1E1E1E"/>
</g>
<path d="M44.96 102.435C45.0347 101.453 45.4133 100.685 46.096 100.131C46.7787 99.5762 47.664 99.2988 48.752 99.2988C49.4773 99.2988 50.1013 99.4322 50.624 99.6988C51.1573 99.9548 51.5573 100.307 51.824 100.755C52.1013 101.203 52.24 101.709 52.24 102.275C52.24 102.936 52.048 103.507 51.664 103.987C51.2907 104.467 50.8 104.776 50.192 104.915V104.995C50.8853 105.165 51.4347 105.501 51.84 106.003C52.2453 106.504 52.448 107.16 52.448 107.971C52.448 108.579 52.3093 109.128 52.032 109.619C51.7547 110.099 51.3387 110.477 50.784 110.755C50.2293 111.032 49.5627 111.171 48.784 111.171C47.6533 111.171 46.7253 110.877 46 110.291C45.2747 109.693 44.8693 108.851 44.784 107.763H46.192C46.2667 108.403 46.528 108.925 46.976 109.331C47.424 109.736 48.0213 109.939 48.768 109.939C49.5147 109.939 50.08 109.747 50.464 109.363C50.8587 108.968 51.056 108.461 51.056 107.843C51.056 107.043 50.7893 106.467 50.256 106.115C49.7227 105.763 48.9173 105.587 47.84 105.587H47.472V104.371H47.856C48.8373 104.36 49.5787 104.2 50.08 103.891C50.5813 103.571 50.832 103.08 50.832 102.419C50.832 101.853 50.6453 101.4 50.272 101.059C49.9093 100.717 49.3867 100.547 48.704 100.547C48.0427 100.547 47.5093 100.717 47.104 101.059C46.6987 101.4 46.4587 101.859 46.384 102.435H44.96ZM54.7979 111.187C54.5205 111.187 54.2859 111.091 54.0939 110.899C53.9019 110.707 53.8059 110.472 53.8059 110.195C53.8059 109.917 53.9019 109.683 54.0939 109.491C54.2859 109.299 54.5205 109.203 54.7979 109.203C55.0645 109.203 55.2885 109.299 55.4699 109.491C55.6619 109.683 55.7579 109.917 55.7579 110.195C55.7579 110.472 55.6619 110.707 55.4699 110.899C55.2885 111.091 55.0645 111.187 54.7979 111.187ZM56.9572 109.923C58.3119 108.835 59.3732 107.944 60.1412 107.251C60.9092 106.547 61.5546 105.816 62.0773 105.059C62.6106 104.291 62.8773 103.539 62.8773 102.803C62.8773 102.109 62.7066 101.565 62.3653 101.171C62.0346 100.765 61.4959 100.563 60.7492 100.563C60.0239 100.563 59.4586 100.792 59.0532 101.251C58.6586 101.699 58.4452 102.301 58.4132 103.059H57.0052C57.0479 101.864 57.4106 100.941 58.0932 100.291C58.7759 99.6402 59.6559 99.3148 60.7332 99.3148C61.8319 99.3148 62.7012 99.6188 63.3412 100.227C63.9919 100.835 64.3173 101.672 64.3173 102.739C64.3173 103.624 64.0506 104.488 63.5173 105.331C62.9946 106.163 62.3973 106.899 61.7252 107.539C61.0532 108.168 60.1946 108.904 59.1492 109.747H64.6532V110.963H56.9572V109.923ZM65.6324 100.851V99.5228H68.6404V111.091H67.1684V100.851H65.6324ZM81.6054 102.163C82.288 102.163 82.896 102.307 83.4294 102.595C83.9627 102.872 84.384 103.293 84.6934 103.859C85.0027 104.424 85.1574 105.112 85.1574 105.923V111.091H83.7174V106.131C83.7174 105.256 83.4987 104.589 83.0614 104.131C82.6347 103.661 82.0534 103.427 81.3174 103.427C80.56 103.427 79.9574 103.672 79.5094 104.163C79.0614 104.643 78.8374 105.341 78.8374 106.259V111.091H77.3974V106.131C77.3974 105.256 77.1787 104.589 76.7414 104.131C76.3147 103.661 75.7334 103.427 74.9974 103.427C74.24 103.427 73.6374 103.672 73.1894 104.163C72.7414 104.643 72.5174 105.341 72.5174 106.259V111.091H71.0614V102.323H72.5174V103.587C72.8054 103.128 73.1894 102.776 73.6694 102.531C74.16 102.285 74.6987 102.163 75.2854 102.163C76.0214 102.163 76.672 102.328 77.2374 102.659C77.8027 102.989 78.224 103.475 78.5014 104.115C78.7467 103.496 79.152 103.016 79.7174 102.675C80.2827 102.333 80.912 102.163 81.6054 102.163Z" fill="#1E1E1E"/>
<g opacity="0.5" clip-path="url(#clip2_3933_13266)">
<path d="M30.5835 136.688C29.6451 136.703 28.7272 136.965 27.9224 137.448C27.1177 137.931 26.4546 138.617 26.0001 139.438C25.5457 138.617 24.8826 137.931 24.0778 137.448C23.2731 136.965 22.3552 136.703 21.4168 136.688C19.9209 136.753 18.5115 137.408 17.4966 138.509C16.4817 139.609 15.9437 141.067 16.0001 142.563C16.0001 146.353 19.9885 150.491 23.3335 153.297C24.0803 153.924 25.0246 154.268 26.0001 154.268C26.9757 154.268 27.9199 153.924 28.6668 153.297C32.0118 150.491 36.0001 146.353 36.0001 142.563C36.0566 141.067 35.5186 139.609 34.5036 138.509C33.4887 137.408 32.0793 136.753 30.5835 136.688ZM27.596 152.022C27.1493 152.398 26.5841 152.604 26.0001 152.604C25.4162 152.604 24.851 152.398 24.4043 152.022C20.1226 148.429 17.6668 144.983 17.6668 142.563C17.6098 141.509 17.9721 140.475 18.6746 139.686C19.3771 138.898 20.3628 138.419 21.4168 138.355C22.4708 138.419 23.4565 138.898 24.159 139.686C24.8615 140.475 25.2238 141.509 25.1668 142.563C25.1668 142.784 25.2546 142.996 25.4109 143.153C25.5672 143.309 25.7791 143.397 26.0001 143.397C26.2211 143.397 26.4331 143.309 26.5894 143.153C26.7457 142.996 26.8335 142.784 26.8335 142.563C26.7765 141.509 27.1388 140.475 27.8413 139.686C28.5438 138.898 29.5295 138.419 30.5835 138.355C31.6374 138.419 32.6232 138.898 33.3257 139.686C34.0282 140.475 34.3904 141.509 34.3335 142.563C34.3335 144.983 31.8776 148.429 27.596 152.018V152.022Z" fill="#1E1E1E"/>
</g>
<path d="M46.864 147.987C46.9707 148.595 47.216 149.064 47.6 149.395C47.9947 149.725 48.5227 149.891 49.184 149.891C50.0693 149.891 50.72 149.544 51.136 148.851C51.5627 148.157 51.7653 146.989 51.744 145.347C51.52 145.827 51.1467 146.205 50.624 146.483C50.1013 146.749 49.52 146.883 48.88 146.883C48.1653 146.883 47.5253 146.739 46.96 146.451C46.4053 146.152 45.968 145.72 45.648 145.155C45.328 144.589 45.168 143.907 45.168 143.107C45.168 141.965 45.4987 141.048 46.16 140.355C46.8213 139.651 47.76 139.299 48.976 139.299C50.4693 139.299 51.5147 139.784 52.112 140.755C52.72 141.725 53.024 143.171 53.024 145.091C53.024 146.435 52.9013 147.544 52.656 148.419C52.4213 149.293 52.016 149.96 51.44 150.419C50.8747 150.877 50.096 151.107 49.104 151.107C48.016 151.107 47.168 150.813 46.56 150.227C45.952 149.64 45.6053 148.893 45.52 147.987H46.864ZM49.12 145.651C49.8347 145.651 50.4213 145.432 50.88 144.995C51.3387 144.547 51.568 143.944 51.568 143.187C51.568 142.387 51.344 141.741 50.896 141.251C50.448 140.76 49.8187 140.515 49.008 140.515C48.2613 140.515 47.664 140.749 47.216 141.219C46.7787 141.688 46.56 142.307 46.56 143.075C46.56 143.853 46.7787 144.477 47.216 144.947C47.6533 145.416 48.288 145.651 49.12 145.651ZM56.8621 145.075C56.2648 144.84 55.8061 144.499 55.4861 144.051C55.1661 143.603 55.0061 143.059 55.0061 142.419C55.0061 141.843 55.1501 141.325 55.4381 140.867C55.7261 140.397 56.1528 140.029 56.7181 139.763C57.2941 139.485 57.9875 139.347 58.7981 139.347C59.6088 139.347 60.2968 139.485 60.8621 139.763C61.4381 140.029 61.8701 140.397 62.1581 140.867C62.4568 141.325 62.6061 141.843 62.6061 142.419C62.6061 143.037 62.4408 143.581 62.1101 144.051C61.7795 144.509 61.3261 144.851 60.7501 145.075C61.4115 145.277 61.9341 145.635 62.3181 146.147C62.7128 146.648 62.9101 147.256 62.9101 147.971C62.9101 148.664 62.7395 149.272 62.3981 149.795C62.0568 150.307 61.5715 150.707 60.9421 150.995C60.3235 151.272 59.6088 151.411 58.7981 151.411C57.9875 151.411 57.2728 151.272 56.6541 150.995C56.0461 150.707 55.5715 150.307 55.2301 149.795C54.8888 149.272 54.7181 148.664 54.7181 147.971C54.7181 147.256 54.9101 146.643 55.2941 146.131C55.6781 145.619 56.2008 145.267 56.8621 145.075ZM61.1981 142.595C61.1981 141.944 60.9848 141.443 60.5581 141.091C60.1315 140.739 59.5448 140.563 58.7981 140.563C58.0621 140.563 57.4808 140.739 57.0541 141.091C56.6275 141.443 56.4141 141.949 56.4141 142.611C56.4141 143.208 56.6328 143.688 57.0701 144.051C57.5181 144.413 58.0941 144.595 58.7981 144.595C59.5128 144.595 60.0888 144.413 60.5261 144.051C60.9741 143.677 61.1981 143.192 61.1981 142.595ZM58.7981 145.715C58.0088 145.715 57.3635 145.901 56.8621 146.275C56.3608 146.637 56.1101 147.187 56.1101 147.923C56.1101 148.605 56.3501 149.155 56.8301 149.571C57.3208 149.987 57.9768 150.195 58.7981 150.195C59.6195 150.195 60.2701 149.987 60.7501 149.571C61.2301 149.155 61.4701 148.605 61.4701 147.923C61.4701 147.208 61.2248 146.664 60.7341 146.291C60.2435 145.907 59.5981 145.715 58.7981 145.715ZM66.2199 143.955C66.5185 143.432 66.9559 143.005 67.5319 142.675C68.1079 142.344 68.7639 142.179 69.4999 142.179C70.2892 142.179 70.9985 142.365 71.6279 142.739C72.2572 143.112 72.7532 143.64 73.1159 144.323C73.4785 144.995 73.6599 145.779 73.6599 146.675C73.6599 147.56 73.4785 148.349 73.1159 149.043C72.7532 149.736 72.2519 150.275 71.6119 150.659C70.9825 151.043 70.2785 151.235 69.4999 151.235C68.7425 151.235 68.0759 151.069 67.4999 150.739C66.9345 150.408 66.5079 149.987 66.2199 149.475V151.091H64.7639V139.251H66.2199V143.955ZM72.1719 146.675C72.1719 146.013 72.0385 145.437 71.7719 144.947C71.5052 144.456 71.1425 144.083 70.6839 143.827C70.2359 143.571 69.7399 143.443 69.1959 143.443C68.6625 143.443 68.1665 143.576 67.7079 143.843C67.2599 144.099 66.8972 144.477 66.6199 144.979C66.3532 145.469 66.2199 146.04 66.2199 146.691C66.2199 147.352 66.3532 147.933 66.6199 148.435C66.8972 148.925 67.2599 149.304 67.7079 149.571C68.1665 149.827 68.6625 149.955 69.1959 149.955C69.7399 149.955 70.2359 149.827 70.6839 149.571C71.1425 149.304 71.5052 148.925 71.7719 148.435C72.0385 147.933 72.1719 147.347 72.1719 146.675ZM76.7124 143.939C77.0004 143.437 77.427 143.021 77.9924 142.691C78.5684 142.349 79.235 142.179 79.9924 142.179C80.771 142.179 81.475 142.365 82.1044 142.739C82.7444 143.112 83.2457 143.64 83.6084 144.323C83.971 144.995 84.1524 145.779 84.1524 146.675C84.1524 147.56 83.971 148.349 83.6084 149.043C83.2457 149.736 82.7444 150.275 82.1044 150.659C81.475 151.043 80.771 151.235 79.9924 151.235C79.2457 151.235 78.5844 151.069 78.0084 150.739C77.443 150.397 77.011 149.976 76.7124 149.475V155.251H75.2564V142.323H76.7124V143.939ZM82.6644 146.675C82.6644 146.013 82.531 145.437 82.2644 144.947C81.9977 144.456 81.635 144.083 81.1764 143.827C80.7284 143.571 80.2324 143.443 79.6884 143.443C79.155 143.443 78.659 143.576 78.2004 143.843C77.7524 144.099 77.3897 144.477 77.1124 144.979C76.8457 145.469 76.7124 146.04 76.7124 146.691C76.7124 147.352 76.8457 147.933 77.1124 148.435C77.3897 148.925 77.7524 149.304 78.2004 149.571C78.659 149.827 79.155 149.955 79.6884 149.955C80.2324 149.955 80.7284 149.827 81.1764 149.571C81.635 149.304 81.9977 148.925 82.2644 148.435C82.531 147.933 82.6644 147.347 82.6644 146.675ZM96.2929 142.163C96.9755 142.163 97.5835 142.307 98.1169 142.595C98.6502 142.872 99.0715 143.293 99.3809 143.859C99.6902 144.424 99.8449 145.112 99.8449 145.923V151.091H98.4049V146.131C98.4049 145.256 98.1862 144.589 97.7489 144.131C97.3222 143.661 96.7409 143.427 96.0049 143.427C95.2475 143.427 94.6449 143.672 94.1969 144.163C93.7489 144.643 93.5249 145.341 93.5249 146.259V151.091H92.0849V146.131C92.0849 145.256 91.8662 144.589 91.4289 144.131C91.0022 143.661 90.4209 143.427 89.6849 143.427C88.9275 143.427 88.3249 143.672 87.8769 144.163C87.4289 144.643 87.2049 145.341 87.2049 146.259V151.091H85.7489V142.323H87.2049V143.587C87.4929 143.128 87.8769 142.776 88.3569 142.531C88.8475 142.285 89.3862 142.163 89.9729 142.163C90.7089 142.163 91.3595 142.328 91.9249 142.659C92.4902 142.989 92.9115 143.475 93.1889 144.115C93.4342 143.496 93.8395 143.016 94.4049 142.675C94.9702 142.333 95.5995 142.163 96.2929 142.163Z" fill="#1E1E1E"/>
<path opacity="0.5" d="M18.016 28.2028H20.944V29.0908H16.924V20.7268H18.016V28.2028ZM21.6957 25.7788C21.6957 25.1068 21.8317 24.5188 22.1037 24.0148C22.3757 23.5028 22.7477 23.1068 23.2197 22.8268C23.6997 22.5468 24.2317 22.4068 24.8157 22.4068C25.3917 22.4068 25.8917 22.5308 26.3157 22.7788C26.7397 23.0268 27.0557 23.3388 27.2637 23.7148V22.5148H28.3677V29.0908H27.2637V27.8668C27.0477 28.2508 26.7237 28.5708 26.2917 28.8268C25.8677 29.0748 25.3717 29.1988 24.8037 29.1988C24.2197 29.1988 23.6917 29.0548 23.2197 28.7668C22.7477 28.4788 22.3757 28.0748 22.1037 27.5548C21.8317 27.0348 21.6957 26.4428 21.6957 25.7788ZM27.2637 25.7908C27.2637 25.2948 27.1637 24.8628 26.9637 24.4948C26.7637 24.1268 26.4917 23.8468 26.1477 23.6548C25.8117 23.4548 25.4397 23.3548 25.0317 23.3548C24.6237 23.3548 24.2517 23.4508 23.9157 23.6428C23.5797 23.8348 23.3117 24.1148 23.1117 24.4828C22.9117 24.8508 22.8117 25.2828 22.8117 25.7788C22.8117 26.2828 22.9117 26.7228 23.1117 27.0988C23.3117 27.4668 23.5797 27.7508 23.9157 27.9508C24.2517 28.1428 24.6237 28.2388 25.0317 28.2388C25.4397 28.2388 25.8117 28.1428 26.1477 27.9508C26.4917 27.7508 26.7637 27.4668 26.9637 27.0988C27.1637 26.7228 27.2637 26.2868 27.2637 25.7908ZM32.5411 29.1988C32.0371 29.1988 31.5851 29.1148 31.1851 28.9468C30.7851 28.7708 30.4691 28.5308 30.2371 28.2268C30.0051 27.9148 29.8771 27.5588 29.8531 27.1588H30.9811C31.0131 27.4868 31.1651 27.7548 31.4371 27.9628C31.7171 28.1708 32.0811 28.2748 32.5291 28.2748C32.9451 28.2748 33.2731 28.1828 33.5131 27.9988C33.7531 27.8148 33.8731 27.5828 33.8731 27.3028C33.8731 27.0148 33.7451 26.8028 33.4891 26.6668C33.2331 26.5228 32.8371 26.3828 32.3011 26.2468C31.8131 26.1188 31.4131 25.9908 31.1011 25.8628C30.7971 25.7268 30.5331 25.5308 30.3091 25.2748C30.0931 25.0108 29.9851 24.6668 29.9851 24.2428C29.9851 23.9068 30.0851 23.5988 30.2851 23.3188C30.4851 23.0388 30.7691 22.8188 31.1371 22.6588C31.5051 22.4908 31.9251 22.4068 32.3971 22.4068C33.1251 22.4068 33.7131 22.5908 34.1611 22.9588C34.6091 23.3268 34.8491 23.8308 34.8811 24.4708H33.7891C33.7651 24.1268 33.6251 23.8508 33.3691 23.6428C33.1211 23.4348 32.7851 23.3308 32.3611 23.3308C31.9691 23.3308 31.6571 23.4148 31.4251 23.5828C31.1931 23.7508 31.0771 23.9708 31.0771 24.2428C31.0771 24.4588 31.1451 24.6388 31.2811 24.7828C31.4251 24.9188 31.6011 25.0308 31.8091 25.1188C32.0251 25.1988 32.3211 25.2908 32.6971 25.3948C33.1691 25.5228 33.5531 25.6508 33.8491 25.7788C34.1451 25.8988 34.3971 26.0828 34.6051 26.3308C34.8211 26.5788 34.9331 26.9028 34.9411 27.3028C34.9411 27.6628 34.8411 27.9868 34.6411 28.2748C34.4411 28.5628 34.1571 28.7908 33.7891 28.9588C33.4291 29.1188 33.0131 29.1988 32.5411 29.1988ZM37.8146 23.4148V27.2908C37.8146 27.6108 37.8826 27.8388 38.0186 27.9748C38.1546 28.1028 38.3906 28.1668 38.7266 28.1668H39.5306V29.0908H38.5466C37.9386 29.0908 37.4826 28.9508 37.1786 28.6708C36.8746 28.3908 36.7226 27.9308 36.7226 27.2908V23.4148H35.8706V22.5148H36.7226V20.8588H37.8146V22.5148H39.5306V23.4148H37.8146ZM49.8849 22.5148V29.0908H48.7929V28.1188C48.5849 28.4548 48.2929 28.7188 47.9169 28.9108C47.5489 29.0948 47.1409 29.1868 46.6929 29.1868C46.1809 29.1868 45.7209 29.0828 45.3129 28.8748C44.9049 28.6588 44.5809 28.3388 44.3409 27.9148C44.1089 27.4908 43.9929 26.9748 43.9929 26.3668V22.5148H45.0729V26.2228C45.0729 26.8708 45.2369 27.3708 45.5649 27.7228C45.8929 28.0668 46.3409 28.2388 46.9089 28.2388C47.4929 28.2388 47.9529 28.0588 48.2889 27.6988C48.6249 27.3388 48.7929 26.8148 48.7929 26.1268V22.5148H49.8849ZM52.8207 23.7268C53.0367 23.3508 53.3567 23.0388 53.7807 22.7908C54.2127 22.5348 54.7127 22.4068 55.2807 22.4068C55.8647 22.4068 56.3927 22.5468 56.8647 22.8268C57.3447 23.1068 57.7207 23.5028 57.9927 24.0148C58.2647 24.5188 58.4007 25.1068 58.4007 25.7788C58.4007 26.4428 58.2647 27.0348 57.9927 27.5548C57.7207 28.0748 57.3447 28.4788 56.8647 28.7668C56.3927 29.0548 55.8647 29.1988 55.2807 29.1988C54.7207 29.1988 54.2247 29.0748 53.7927 28.8268C53.3687 28.5708 53.0447 28.2548 52.8207 27.8788V32.2108H51.7287V22.5148H52.8207V23.7268ZM57.2847 25.7788C57.2847 25.2828 57.1847 24.8508 56.9847 24.4828C56.7847 24.1148 56.5127 23.8348 56.1687 23.6428C55.8327 23.4508 55.4607 23.3548 55.0527 23.3548C54.6527 23.3548 54.2807 23.4548 53.9367 23.6548C53.6007 23.8468 53.3287 24.1308 53.1207 24.5068C52.9207 24.8748 52.8207 25.3028 52.8207 25.7908C52.8207 26.2868 52.9207 26.7228 53.1207 27.0988C53.3287 27.4668 53.6007 27.7508 53.9367 27.9508C54.2807 28.1428 54.6527 28.2388 55.0527 28.2388C55.4607 28.2388 55.8327 28.1428 56.1687 27.9508C56.5127 27.7508 56.7847 27.4668 56.9847 27.0988C57.1847 26.7228 57.2847 26.2828 57.2847 25.7788ZM59.4301 25.7788C59.4301 25.1068 59.5661 24.5188 59.8381 24.0148C60.1101 23.5028 60.4821 23.1068 60.9541 22.8268C61.4341 22.5468 61.9701 22.4068 62.5621 22.4068C63.0741 22.4068 63.5501 22.5268 63.9901 22.7668C64.4301 22.9988 64.7661 23.3068 64.9981 23.6908V20.2108H66.1021V29.0908H64.9981V27.8548C64.7821 28.2468 64.4621 28.5708 64.0381 28.8268C63.6141 29.0748 63.1181 29.1988 62.5501 29.1988C61.9661 29.1988 61.4341 29.0548 60.9541 28.7668C60.4821 28.4788 60.1101 28.0748 59.8381 27.5548C59.5661 27.0348 59.4301 26.4428 59.4301 25.7788ZM64.9981 25.7908C64.9981 25.2948 64.8981 24.8628 64.6981 24.4948C64.4981 24.1268 64.2261 23.8468 63.8821 23.6548C63.5461 23.4548 63.1741 23.3548 62.7661 23.3548C62.3581 23.3548 61.9861 23.4508 61.6501 23.6428C61.3141 23.8348 61.0461 24.1148 60.8461 24.4828C60.6461 24.8508 60.5461 25.2828 60.5461 25.7788C60.5461 26.2828 60.6461 26.7228 60.8461 27.0988C61.0461 27.4668 61.3141 27.7508 61.6501 27.9508C61.9861 28.1428 62.3581 28.2388 62.7661 28.2388C63.1741 28.2388 63.5461 28.1428 63.8821 27.9508C64.2261 27.7508 64.4981 27.4668 64.6981 27.0988C64.8981 26.7228 64.9981 26.2868 64.9981 25.7908ZM67.5394 25.7788C67.5394 25.1068 67.6754 24.5188 67.9474 24.0148C68.2194 23.5028 68.5914 23.1068 69.0634 22.8268C69.5434 22.5468 70.0754 22.4068 70.6594 22.4068C71.2354 22.4068 71.7354 22.5308 72.1594 22.7788C72.5834 23.0268 72.8994 23.3388 73.1074 23.7148V22.5148H74.2114V29.0908H73.1074V27.8668C72.8914 28.2508 72.5674 28.5708 72.1354 28.8268C71.7114 29.0748 71.2154 29.1988 70.6474 29.1988C70.0634 29.1988 69.5354 29.0548 69.0634 28.7668C68.5914 28.4788 68.2194 28.0748 67.9474 27.5548C67.6754 27.0348 67.5394 26.4428 67.5394 25.7788ZM73.1074 25.7908C73.1074 25.2948 73.0074 24.8628 72.8074 24.4948C72.6074 24.1268 72.3354 23.8468 71.9914 23.6548C71.6554 23.4548 71.2834 23.3548 70.8754 23.3548C70.4674 23.3548 70.0954 23.4508 69.7594 23.6428C69.4234 23.8348 69.1554 24.1148 68.9554 24.4828C68.7554 24.8508 68.6554 25.2828 68.6554 25.7788C68.6554 26.2828 68.7554 26.7228 68.9554 27.0988C69.1554 27.4668 69.4234 27.7508 69.7594 27.9508C70.0954 28.1428 70.4674 28.2388 70.8754 28.2388C71.2834 28.2388 71.6554 28.1428 71.9914 27.9508C72.3354 27.7508 72.6074 27.4668 72.8074 27.0988C73.0074 26.7228 73.1074 26.2868 73.1074 25.7908ZM77.3888 23.4148V27.2908C77.3888 27.6108 77.4568 27.8388 77.5928 27.9748C77.7288 28.1028 77.9648 28.1668 78.3008 28.1668H79.1048V29.0908H78.1208C77.5128 29.0908 77.0568 28.9508 76.7528 28.6708C76.4488 28.3908 76.2968 27.9308 76.2968 27.2908V23.4148H75.4448V22.5148H76.2968V20.8588H77.3888V22.5148H79.1048V23.4148H77.3888ZM86.4279 25.5508C86.4279 25.7588 86.4159 25.9788 86.3919 26.2108H81.1359C81.1759 26.8588 81.3959 27.3668 81.7959 27.7348C82.2039 28.0948 82.6959 28.2748 83.2719 28.2748C83.7439 28.2748 84.1359 28.1668 84.4479 27.9508C84.7679 27.7268 84.9919 27.4308 85.1199 27.0628H86.2959C86.1199 27.6948 85.7679 28.2108 85.2399 28.6108C84.7119 29.0028 84.0559 29.1988 83.2719 29.1988C82.6479 29.1988 82.0879 29.0588 81.5919 28.7788C81.1039 28.4988 80.7199 28.1028 80.4399 27.5908C80.1599 27.0708 80.0199 26.4708 80.0199 25.7908C80.0199 25.1108 80.1559 24.5148 80.4279 24.0028C80.6999 23.4908 81.0799 23.0988 81.5679 22.8268C82.0639 22.5468 82.6319 22.4068 83.2719 22.4068C83.8959 22.4068 84.4479 22.5428 84.9279 22.8148C85.4079 23.0868 85.7759 23.4628 86.0319 23.9428C86.2959 24.4148 86.4279 24.9508 86.4279 25.5508ZM85.2999 25.3228C85.2999 24.9068 85.2079 24.5508 85.0239 24.2548C84.8399 23.9508 84.5879 23.7228 84.2679 23.5708C83.9559 23.4108 83.6079 23.3308 83.2239 23.3308C82.6719 23.3308 82.1999 23.5068 81.8079 23.8588C81.4239 24.2108 81.2039 24.6988 81.1479 25.3228H85.2999ZM90.7565 28.2148C91.7725 27.3988 92.5685 26.7308 93.1445 26.2108C93.7205 25.6828 94.2045 25.1348 94.5965 24.5668C94.9965 23.9908 95.1965 23.4268 95.1965 22.8748C95.1965 22.3548 95.0685 21.9468 94.8125 21.6508C94.5645 21.3468 94.1605 21.1948 93.6005 21.1948C93.0565 21.1948 92.6325 21.3668 92.3285 21.7108C92.0325 22.0468 91.8725 22.4988 91.8485 23.0668H90.7925C90.8245 22.1708 91.0965 21.4788 91.6085 20.9908C92.1205 20.5028 92.7805 20.2588 93.5885 20.2588C94.4125 20.2588 95.0645 20.4868 95.5445 20.9428C96.0325 21.3988 96.2765 22.0268 96.2765 22.8268C96.2765 23.4908 96.0765 24.1388 95.6765 24.7708C95.2845 25.3948 94.8365 25.9468 94.3325 26.4268C93.8285 26.8988 93.1845 27.4508 92.4005 28.0828H96.5285V28.9948H90.7565V28.2148ZM105.879 22.3948C106.391 22.3948 106.847 22.5028 107.247 22.7188C107.647 22.9268 107.963 23.2428 108.195 23.6668C108.427 24.0908 108.543 24.6068 108.543 25.2148V29.0908H107.463V25.3708C107.463 24.7148 107.299 24.2148 106.971 23.8708C106.651 23.5188 106.215 23.3428 105.663 23.3428C105.095 23.3428 104.643 23.5268 104.307 23.8948C103.971 24.2548 103.803 24.7788 103.803 25.4668V29.0908H102.723V25.3708C102.723 24.7148 102.559 24.2148 102.231 23.8708C101.911 23.5188 101.475 23.3428 100.923 23.3428C100.355 23.3428 99.9029 23.5268 99.5669 23.8948C99.2309 24.2548 99.0629 24.7788 99.0629 25.4668V29.0908H97.9709V22.5148H99.0629V23.4628C99.2789 23.1188 99.5669 22.8548 99.9269 22.6708C100.295 22.4868 100.699 22.3948 101.139 22.3948C101.691 22.3948 102.179 22.5188 102.603 22.7668C103.027 23.0148 103.343 23.3788 103.551 23.8588C103.735 23.3948 104.039 23.0348 104.463 22.7788C104.887 22.5228 105.359 22.3948 105.879 22.3948ZM113.125 25.7788C113.125 25.1068 113.261 24.5188 113.533 24.0148C113.805 23.5028 114.177 23.1068 114.649 22.8268C115.129 22.5468 115.661 22.4068 116.245 22.4068C116.821 22.4068 117.321 22.5308 117.745 22.7788C118.169 23.0268 118.485 23.3388 118.693 23.7148V22.5148H119.797V29.0908H118.693V27.8668C118.477 28.2508 118.153 28.5708 117.721 28.8268C117.297 29.0748 116.801 29.1988 116.233 29.1988C115.649 29.1988 115.121 29.0548 114.649 28.7668C114.177 28.4788 113.805 28.0748 113.533 27.5548C113.261 27.0348 113.125 26.4428 113.125 25.7788ZM118.693 25.7908C118.693 25.2948 118.593 24.8628 118.393 24.4948C118.193 24.1268 117.921 23.8468 117.577 23.6548C117.241 23.4548 116.869 23.3548 116.461 23.3548C116.053 23.3548 115.681 23.4508 115.345 23.6428C115.009 23.8348 114.741 24.1148 114.541 24.4828C114.341 24.8508 114.241 25.2828 114.241 25.7788C114.241 26.2828 114.341 26.7228 114.541 27.0988C114.741 27.4668 115.009 27.7508 115.345 27.9508C115.681 28.1428 116.053 28.2388 116.461 28.2388C116.869 28.2388 117.241 28.1428 117.577 27.9508C117.921 27.7508 118.193 27.4668 118.393 27.0988C118.593 26.7228 118.693 26.2868 118.693 25.7908ZM124.355 22.4068C124.923 22.4068 125.419 22.5308 125.843 22.7788C126.275 23.0268 126.595 23.3388 126.803 23.7148V22.5148H127.907V29.2348C127.907 29.8348 127.779 30.3668 127.523 30.8308C127.267 31.3028 126.899 31.6708 126.419 31.9348C125.947 32.1988 125.395 32.3308 124.763 32.3308C123.899 32.3308 123.179 32.1268 122.603 31.7188C122.027 31.3108 121.687 30.7548 121.583 30.0508H122.663C122.783 30.4508 123.031 30.7708 123.407 31.0108C123.783 31.2588 124.235 31.3828 124.763 31.3828C125.363 31.3828 125.851 31.1948 126.227 30.8188C126.611 30.4428 126.803 29.9148 126.803 29.2348V27.8548C126.587 28.2388 126.267 28.5588 125.843 28.8148C125.419 29.0708 124.923 29.1988 124.355 29.1988C123.771 29.1988 123.239 29.0548 122.759 28.7668C122.287 28.4788 121.915 28.0748 121.643 27.5548C121.371 27.0348 121.235 26.4428 121.235 25.7788C121.235 25.1068 121.371 24.5188 121.643 24.0148C121.915 23.5028 122.287 23.1068 122.759 22.8268C123.239 22.5468 123.771 22.4068 124.355 22.4068ZM126.803 25.7908C126.803 25.2948 126.703 24.8628 126.503 24.4948C126.303 24.1268 126.031 23.8468 125.687 23.6548C125.351 23.4548 124.979 23.3548 124.571 23.3548C124.163 23.3548 123.791 23.4508 123.455 23.6428C123.119 23.8348 122.851 24.1148 122.651 24.4828C122.451 24.8508 122.351 25.2828 122.351 25.7788C122.351 26.2828 122.451 26.7228 122.651 27.0988C122.851 27.4668 123.119 27.7508 123.455 27.9508C123.791 28.1428 124.163 28.2388 124.571 28.2388C124.979 28.2388 125.351 28.1428 125.687 27.9508C126.031 27.7508 126.303 27.4668 126.503 27.0988C126.703 26.7228 126.803 26.2868 126.803 25.7908ZM132.62 29.1988C132.004 29.1988 131.444 29.0588 130.94 28.7788C130.444 28.4988 130.052 28.1028 129.764 27.5908C129.484 27.0708 129.344 26.4708 129.344 25.7908C129.344 25.1188 129.488 24.5268 129.776 24.0148C130.072 23.4948 130.472 23.0988 130.976 22.8268C131.48 22.5468 132.044 22.4068 132.668 22.4068C133.292 22.4068 133.856 22.5468 134.36 22.8268C134.864 23.0988 135.26 23.4908 135.548 24.0028C135.844 24.5148 135.992 25.1108 135.992 25.7908C135.992 26.4708 135.84 27.0708 135.536 27.5908C135.24 28.1028 134.836 28.4988 134.324 28.7788C133.812 29.0588 133.244 29.1988 132.62 29.1988ZM132.62 28.2388C133.012 28.2388 133.38 28.1468 133.724 27.9628C134.068 27.7788 134.344 27.5028 134.552 27.1348C134.768 26.7668 134.876 26.3188 134.876 25.7908C134.876 25.2628 134.772 24.8148 134.564 24.4468C134.356 24.0788 134.084 23.8068 133.748 23.6308C133.412 23.4468 133.048 23.3548 132.656 23.3548C132.256 23.3548 131.888 23.4468 131.552 23.6308C131.224 23.8068 130.96 24.0788 130.76 24.4468C130.56 24.8148 130.46 25.2628 130.46 25.7908C130.46 26.3268 130.556 26.7788 130.748 27.1468C130.948 27.5148 131.212 27.7908 131.54 27.9748C131.868 28.1508 132.228 28.2388 132.62 28.2388ZM143.075 28.0828L145.115 22.5148H146.279L143.699 29.0908H142.427L139.847 22.5148H141.023L143.075 28.0828ZM147.918 21.4468C147.71 21.4468 147.534 21.3748 147.39 21.2308C147.246 21.0868 147.174 20.9108 147.174 20.7028C147.174 20.4948 147.246 20.3188 147.39 20.1748C147.534 20.0308 147.71 19.9588 147.918 19.9588C148.118 19.9588 148.286 20.0308 148.422 20.1748C148.566 20.3188 148.638 20.4948 148.638 20.7028C148.638 20.9108 148.566 21.0868 148.422 21.2308C148.286 21.3748 148.118 21.4468 147.918 21.4468ZM148.446 22.5148V29.0908H147.354V22.5148H148.446ZM149.899 25.7788C149.899 25.1068 150.035 24.5188 150.307 24.0148C150.579 23.5028 150.951 23.1068 151.423 22.8268C151.903 22.5468 152.435 22.4068 153.019 22.4068C153.595 22.4068 154.095 22.5308 154.519 22.7788C154.943 23.0268 155.259 23.3388 155.467 23.7148V22.5148H156.571V29.0908H155.467V27.8668C155.251 28.2508 154.927 28.5708 154.495 28.8268C154.071 29.0748 153.575 29.1988 153.007 29.1988C152.423 29.1988 151.895 29.0548 151.423 28.7668C150.951 28.4788 150.579 28.0748 150.307 27.5548C150.035 27.0348 149.899 26.4428 149.899 25.7788ZM155.467 25.7908C155.467 25.2948 155.367 24.8628 155.167 24.4948C154.967 24.1268 154.695 23.8468 154.351 23.6548C154.015 23.4548 153.643 23.3548 153.235 23.3548C152.827 23.3548 152.455 23.4508 152.119 23.6428C151.783 23.8348 151.515 24.1148 151.315 24.4828C151.115 24.8508 151.015 25.2828 151.015 25.7788C151.015 26.2828 151.115 26.7228 151.315 27.0988C151.515 27.4668 151.783 27.7508 152.119 27.9508C152.455 28.1428 152.827 28.2388 153.235 28.2388C153.643 28.2388 154.015 28.1428 154.351 27.9508C154.695 27.7508 154.967 27.4668 155.167 27.0988C155.367 26.7228 155.467 26.2868 155.467 25.7908ZM166.559 27.2308H162.911L162.239 29.0908H161.087L164.111 20.7748H165.371L168.383 29.0908H167.231L166.559 27.2308ZM166.247 26.3428L164.735 22.1188L163.223 26.3428H166.247ZM170.793 23.7268C171.009 23.3508 171.329 23.0388 171.753 22.7908C172.185 22.5348 172.685 22.4068 173.253 22.4068C173.837 22.4068 174.365 22.5468 174.837 22.8268C175.317 23.1068 175.693 23.5028 175.965 24.0148C176.237 24.5188 176.373 25.1068 176.373 25.7788C176.373 26.4428 176.237 27.0348 175.965 27.5548C175.693 28.0748 175.317 28.4788 174.837 28.7668C174.365 29.0548 173.837 29.1988 173.253 29.1988C172.693 29.1988 172.197 29.0748 171.765 28.8268C171.341 28.5708 171.017 28.2548 170.793 27.8788V32.2108H169.701V22.5148H170.793V23.7268ZM175.257 25.7788C175.257 25.2828 175.157 24.8508 174.957 24.4828C174.757 24.1148 174.485 23.8348 174.141 23.6428C173.805 23.4508 173.433 23.3548 173.025 23.3548C172.625 23.3548 172.253 23.4548 171.909 23.6548C171.573 23.8468 171.301 24.1308 171.093 24.5068C170.893 24.8748 170.793 25.3028 170.793 25.7908C170.793 26.2868 170.893 26.7228 171.093 27.0988C171.301 27.4668 171.573 27.7508 171.909 27.9508C172.253 28.1428 172.625 28.2388 173.025 28.2388C173.433 28.2388 173.805 28.1428 174.141 27.9508C174.485 27.7508 174.757 27.4668 174.957 27.0988C175.157 26.7228 175.257 26.2828 175.257 25.7788ZM178.903 23.7268C179.119 23.3508 179.439 23.0388 179.863 22.7908C180.295 22.5348 180.795 22.4068 181.363 22.4068C181.947 22.4068 182.475 22.5468 182.947 22.8268C183.427 23.1068 183.803 23.5028 184.075 24.0148C184.347 24.5188 184.483 25.1068 184.483 25.7788C184.483 26.4428 184.347 27.0348 184.075 27.5548C183.803 28.0748 183.427 28.4788 182.947 28.7668C182.475 29.0548 181.947 29.1988 181.363 29.1988C180.803 29.1988 180.307 29.0748 179.875 28.8268C179.451 28.5708 179.127 28.2548 178.903 27.8788V32.2108H177.811V22.5148H178.903V23.7268ZM183.367 25.7788C183.367 25.2828 183.267 24.8508 183.067 24.4828C182.867 24.1148 182.595 23.8348 182.251 23.6428C181.915 23.4508 181.543 23.3548 181.135 23.3548C180.735 23.3548 180.363 23.4548 180.019 23.6548C179.683 23.8468 179.411 24.1308 179.203 24.5068C179.003 24.8748 178.903 25.3028 178.903 25.7908C178.903 26.2868 179.003 26.7228 179.203 27.0988C179.411 27.4668 179.683 27.7508 180.019 27.9508C180.363 28.1428 180.735 28.2388 181.135 28.2388C181.543 28.2388 181.915 28.1428 182.251 27.9508C182.595 27.7508 182.867 27.4668 183.067 27.0988C183.267 26.7228 183.367 26.2828 183.367 25.7788ZM187.012 20.2108V29.0908H185.92V20.2108H187.012ZM194.873 25.5508C194.873 25.7588 194.861 25.9788 194.837 26.2108H189.581C189.621 26.8588 189.841 27.3668 190.241 27.7348C190.649 28.0948 191.141 28.2748 191.717 28.2748C192.189 28.2748 192.581 28.1668 192.893 27.9508C193.213 27.7268 193.437 27.4308 193.565 27.0628H194.741C194.565 27.6948 194.213 28.2108 193.685 28.6108C193.157 29.0028 192.501 29.1988 191.717 29.1988C191.093 29.1988 190.533 29.0588 190.037 28.7788C189.549 28.4988 189.165 28.1028 188.885 27.5908C188.605 27.0708 188.465 26.4708 188.465 25.7908C188.465 25.1108 188.601 24.5148 188.873 24.0028C189.145 23.4908 189.525 23.0988 190.013 22.8268C190.509 22.5468 191.077 22.4068 191.717 22.4068C192.341 22.4068 192.893 22.5428 193.373 22.8148C193.853 23.0868 194.221 23.4628 194.477 23.9428C194.741 24.4148 194.873 24.9508 194.873 25.5508ZM193.745 25.3228C193.745 24.9068 193.653 24.5508 193.469 24.2548C193.285 23.9508 193.033 23.7228 192.713 23.5708C192.401 23.4108 192.053 23.3308 191.669 23.3308C191.117 23.3308 190.645 23.5068 190.253 23.8588C189.869 24.2108 189.649 24.6988 189.593 25.3228H193.745ZM205.958 20.7268V29.0908H204.866V25.2988H200.606V29.0908H199.514V20.7268H200.606V24.3988H204.866V20.7268H205.958ZM213.822 25.5508C213.822 25.7588 213.81 25.9788 213.786 26.2108H208.53C208.57 26.8588 208.79 27.3668 209.19 27.7348C209.598 28.0948 210.09 28.2748 210.666 28.2748C211.138 28.2748 211.53 28.1668 211.842 27.9508C212.162 27.7268 212.386 27.4308 212.514 27.0628H213.69C213.514 27.6948 213.162 28.2108 212.634 28.6108C212.106 29.0028 211.45 29.1988 210.666 29.1988C210.042 29.1988 209.482 29.0588 208.986 28.7788C208.498 28.4988 208.114 28.1028 207.834 27.5908C207.554 27.0708 207.414 26.4708 207.414 25.7908C207.414 25.1108 207.55 24.5148 207.822 24.0028C208.094 23.4908 208.474 23.0988 208.962 22.8268C209.458 22.5468 210.026 22.4068 210.666 22.4068C211.29 22.4068 211.842 22.5428 212.322 22.8148C212.802 23.0868 213.17 23.4628 213.426 23.9428C213.69 24.4148 213.822 24.9508 213.822 25.5508ZM212.694 25.3228C212.694 24.9068 212.602 24.5508 212.418 24.2548C212.234 23.9508 211.982 23.7228 211.662 23.5708C211.35 23.4108 211.002 23.3308 210.618 23.3308C210.066 23.3308 209.594 23.5068 209.202 23.8588C208.818 24.2108 208.598 24.6988 208.542 25.3228H212.694ZM214.856 25.7788C214.856 25.1068 214.992 24.5188 215.264 24.0148C215.536 23.5028 215.908 23.1068 216.38 22.8268C216.86 22.5468 217.392 22.4068 217.976 22.4068C218.552 22.4068 219.052 22.5308 219.476 22.7788C219.9 23.0268 220.216 23.3388 220.424 23.7148V22.5148H221.528V29.0908H220.424V27.8668C220.208 28.2508 219.884 28.5708 219.452 28.8268C219.028 29.0748 218.532 29.1988 217.964 29.1988C217.38 29.1988 216.852 29.0548 216.38 28.7668C215.908 28.4788 215.536 28.0748 215.264 27.5548C214.992 27.0348 214.856 26.4428 214.856 25.7788ZM220.424 25.7908C220.424 25.2948 220.324 24.8628 220.124 24.4948C219.924 24.1268 219.652 23.8468 219.308 23.6548C218.972 23.4548 218.6 23.3548 218.192 23.3548C217.784 23.3548 217.412 23.4508 217.076 23.6428C216.74 23.8348 216.472 24.1148 216.272 24.4828C216.072 24.8508 215.972 25.2828 215.972 25.7788C215.972 26.2828 216.072 26.7228 216.272 27.0988C216.472 27.4668 216.74 27.7508 217.076 27.9508C217.412 28.1428 217.784 28.2388 218.192 28.2388C218.6 28.2388 218.972 28.1428 219.308 27.9508C219.652 27.7508 219.924 27.4668 220.124 27.0988C220.324 26.7228 220.424 26.2868 220.424 25.7908ZM224.465 20.2108V29.0908H223.373V20.2108H224.465ZM227.658 23.4148V27.2908C227.658 27.6108 227.726 27.8388 227.862 27.9748C227.998 28.1028 228.234 28.1668 228.57 28.1668H229.374V29.0908H228.39C227.782 29.0908 227.326 28.9508 227.022 28.6708C226.718 28.3908 226.566 27.9308 226.566 27.2908V23.4148H225.714V22.5148H226.566V20.8588H227.658V22.5148H229.374V23.4148H227.658ZM233.961 22.3948C234.457 22.3948 234.905 22.5028 235.305 22.7188C235.705 22.9268 236.017 23.2428 236.241 23.6668C236.473 24.0908 236.589 24.6068 236.589 25.2148V29.0908H235.509V25.3708C235.509 24.7148 235.345 24.2148 235.017 23.8708C234.689 23.5188 234.241 23.3428 233.673 23.3428C233.097 23.3428 232.637 23.5228 232.293 23.8828C231.957 24.2428 231.789 24.7668 231.789 25.4548V29.0908H230.697V20.2108H231.789V23.4508C232.005 23.1148 232.301 22.8548 232.677 22.6708C233.061 22.4868 233.489 22.3948 233.961 22.3948Z" fill="#1E1E1E"/>
<g clip-path="url(#clip3_3933_13266)">
<path d="M316.999 16.7577C318.104 16.7613 319.198 16.9842 320.217 17.4133C321.236 17.8424 322.159 18.4693 322.934 19.2577H320.332C320.111 19.2577 319.899 19.3455 319.743 19.5018C319.587 19.6581 319.499 19.87 319.499 20.0911C319.499 20.3121 319.587 20.524 319.743 20.6803C319.899 20.8366 320.111 20.9244 320.332 20.9244H323.785C324.195 20.9242 324.589 20.7611 324.879 20.4709C325.169 20.1807 325.332 19.7872 325.332 19.3769V15.9244C325.332 15.7034 325.245 15.4914 325.088 15.3351C324.932 15.1788 324.72 15.0911 324.499 15.0911C324.278 15.0911 324.066 15.1788 323.91 15.3351C323.753 15.4914 323.666 15.7034 323.666 15.9244V17.6561C322.288 16.4156 320.593 15.5831 318.769 15.2517C316.945 14.9203 315.065 15.1031 313.34 15.7798C311.614 16.4564 310.111 17.6 308.998 19.0827C307.886 20.5653 307.208 22.3283 307.041 24.1744C307.03 24.2904 307.043 24.4074 307.08 24.518C307.117 24.6285 307.177 24.7301 307.255 24.8164C307.334 24.9026 307.429 24.9716 307.536 25.0189C307.642 25.0662 307.757 25.0907 307.874 25.0911C308.078 25.0936 308.275 25.0201 308.428 24.8848C308.58 24.7494 308.677 24.5621 308.698 24.3594C308.884 22.285 309.838 20.355 311.374 18.9484C312.91 17.5419 314.916 16.7605 316.999 16.7577Z" fill="#1E1E1E"/>
<path d="M326.125 25.0909C325.921 25.0883 325.724 25.1619 325.571 25.2972C325.419 25.4325 325.323 25.6199 325.301 25.8226C325.163 27.4086 324.573 28.9218 323.602 30.1827C322.63 31.4436 321.316 32.3993 319.818 32.9363C318.319 33.4734 316.698 33.5693 315.146 33.2126C313.595 32.856 312.178 32.0618 311.064 30.9242H313.666C313.887 30.9242 314.099 30.8364 314.255 30.6801C314.412 30.5239 314.499 30.3119 314.499 30.0909C314.499 29.8699 314.412 29.6579 314.255 29.5016C314.099 29.3454 313.887 29.2576 313.666 29.2576H310.214C310.01 29.2574 309.809 29.2974 309.621 29.3751C309.433 29.4529 309.263 29.5668 309.119 29.7106C308.975 29.8543 308.861 30.0249 308.784 30.2127C308.706 30.4005 308.666 30.6018 308.666 30.8051V34.2576C308.666 34.4786 308.754 34.6905 308.91 34.8468C309.066 35.0031 309.278 35.0909 309.499 35.0909C309.72 35.0909 309.932 35.0031 310.089 34.8468C310.245 34.6905 310.333 34.4786 310.333 34.2576V32.5259C311.71 33.7663 313.406 34.5989 315.229 34.9303C317.053 35.2616 318.933 35.0788 320.659 34.4022C322.384 33.7256 323.888 32.5819 325 31.0993C326.113 29.6167 326.79 27.8536 326.958 26.0076C326.968 25.8915 326.955 25.7745 326.918 25.664C326.881 25.5534 326.821 25.4518 326.743 25.3656C326.665 25.2793 326.569 25.2104 326.463 25.1631C326.356 25.1158 326.242 25.0912 326.125 25.0909Z" fill="#1E1E1E"/>
</g>
<defs>
<clipPath id="clip0_3933_13266">
<rect width="20" height="20" fill="white" transform="translate(16 55.0908)"/>
</clipPath>
<clipPath id="clip1_3933_13266">
<rect width="20" height="20" fill="white" transform="translate(16 95.0908)"/>
</clipPath>
<clipPath id="clip2_3933_13266">
<rect width="20" height="20" fill="white" transform="translate(16 135.091)"/>
</clipPath>
<clipPath id="clip3_3933_13266">
<rect width="20" height="20" fill="white" transform="translate(307 15.0908)"/>
</clipPath>
</defs>
</svg>
