<svg width="343" height="75" viewBox="0 0 343 75" fill="none" xmlns="http://www.w3.org/2000/svg">
<rect width="343" height="74.4641" rx="22" fill="#F9F8F4"/>
<rect x="5" y="4.9054" width="64" height="64.6533" rx="32" fill="#D6CAE4"/>
<g opacity="0.2" clip-path="url(#clip0_3933_13265)">
<path d="M49.6143 36.2048C49.6143 35.0903 49.2176 33.5608 47.4205 32.3558V31.8504C47.4205 29.9788 46.0452 28.5541 44.0368 28.212C43.6464 26.3117 42.1015 24.9208 40.2029 24.9054H40.1684C39.1103 24.9054 37.8846 25.2865 37.0034 26.1042C36.1284 25.2855 34.9038 24.9054 33.8059 24.9054C31.9011 24.9054 30.351 26.2973 29.9627 28.212C27.9552 28.5541 26.58 29.9799 26.58 31.8504V32.3558C24.7829 33.5608 24.3862 35.0903 24.3862 36.2048C24.3862 37.1848 24.6709 38.1237 25.2162 38.9516C24.7117 39.72 24.4407 40.6116 24.4407 41.5372C24.4407 43.3584 25.5208 45.0297 27.1734 45.8299C28.3027 48.2388 30.2913 49.5587 32.8137 49.5587C34.3502 49.5587 35.9505 48.7236 37.0002 47.5043C38.05 48.7246 39.6503 49.5587 41.1868 49.5587C43.7081 49.5587 45.6978 48.2388 46.8271 45.8299C48.4797 45.0307 49.5609 43.3594 49.5609 41.5372C49.5609 40.6116 49.2888 39.72 48.7843 38.9516C49.3296 38.1237 49.6143 37.1848 49.6143 36.2048ZM41.1041 36.4606L36.7909 42.1237C36.6737 42.2778 36.4895 42.3682 36.2938 42.3682C35.8866 42.3682 35.5904 41.9902 35.694 41.6039L36.5931 38.2593H33.7306C33.1549 38.2593 32.7425 37.7138 32.909 37.1725L34.8055 32.0025C35.0116 31.4416 35.5527 31.0677 36.1598 31.0677H37.8009C38.453 31.0677 38.902 31.7077 38.6707 32.3055L37.5571 35.1766H40.4008C41.0727 35.1766 41.4735 35.9111 41.102 36.4596L41.1041 36.4606Z" fill="#1E1E1E"/>
</g>
<path d="M79.688 32.0801V43.2321H78.232V32.0801H79.688ZM86.1215 34.3041C87.1882 34.3041 88.0522 34.6294 88.7135 35.2801C89.3748 35.9201 89.7055 36.8481 89.7055 38.0641V43.2321H88.2655V38.2721C88.2655 37.3974 88.0468 36.7307 87.6095 36.2721C87.1722 35.8027 86.5748 35.5681 85.8175 35.5681C85.0495 35.5681 84.4362 35.8081 83.9775 36.2881C83.5295 36.7681 83.3055 37.4667 83.3055 38.3841V43.2321H81.8495V34.4641H83.3055V35.7121C83.5935 35.2641 83.9828 34.9174 84.4735 34.6721C84.9748 34.4267 85.5242 34.3041 86.1215 34.3041ZM91.2199 38.8321C91.2199 37.9254 91.4012 37.1361 91.7639 36.4641C92.1265 35.7814 92.6279 35.2534 93.2679 34.8801C93.9185 34.5067 94.6599 34.3201 95.4919 34.3201C96.5692 34.3201 97.4545 34.5814 98.1479 35.1041C98.8519 35.6267 99.3159 36.3521 99.5399 37.2801H97.9719C97.8225 36.7467 97.5292 36.3254 97.0919 36.0161C96.6652 35.7067 96.1319 35.5521 95.4919 35.5521C94.6599 35.5521 93.9879 35.8401 93.4759 36.4161C92.9639 36.9814 92.7079 37.7867 92.7079 38.8321C92.7079 39.8881 92.9639 40.7041 93.4759 41.2801C93.9879 41.8561 94.6599 42.1441 95.4919 42.1441C96.1319 42.1441 96.6652 41.9947 97.0919 41.6961C97.5185 41.3974 97.8119 40.9707 97.9719 40.4161H99.5399C99.3052 41.3121 98.8359 42.0321 98.1319 42.5761C97.4279 43.1094 96.5479 43.3761 95.4919 43.3761C94.6599 43.3761 93.9185 43.1894 93.2679 42.8161C92.6279 42.4427 92.1265 41.9147 91.7639 41.2321C91.4012 40.5494 91.2199 39.7494 91.2199 38.8321ZM102.619 35.8881C102.875 35.3867 103.237 34.9974 103.707 34.7201C104.187 34.4427 104.768 34.3041 105.451 34.3041V35.8081H105.067C103.435 35.8081 102.619 36.6934 102.619 38.4641V43.2321H101.163V34.4641H102.619V35.8881ZM114.811 38.5121C114.811 38.7894 114.795 39.0827 114.763 39.3921H107.755C107.809 40.2561 108.102 40.9334 108.635 41.4241C109.179 41.9041 109.835 42.1441 110.603 42.1441C111.233 42.1441 111.755 42.0001 112.171 41.7121C112.598 41.4134 112.897 41.0187 113.067 40.5281H114.635C114.401 41.3707 113.931 42.0587 113.227 42.5921C112.523 43.1147 111.649 43.3761 110.603 43.3761C109.771 43.3761 109.025 43.1894 108.363 42.8161C107.713 42.4427 107.201 41.9147 106.827 41.2321C106.454 40.5387 106.267 39.7387 106.267 38.8321C106.267 37.9254 106.449 37.1307 106.811 36.4481C107.174 35.7654 107.681 35.2427 108.331 34.8801C108.993 34.5067 109.75 34.3201 110.603 34.3201C111.435 34.3201 112.171 34.5014 112.811 34.8641C113.451 35.2267 113.942 35.7281 114.283 36.3681C114.635 36.9974 114.811 37.7121 114.811 38.5121ZM113.307 38.2081C113.307 37.6534 113.185 37.1787 112.939 36.7841C112.694 36.3787 112.358 36.0747 111.931 35.8721C111.515 35.6587 111.051 35.5521 110.539 35.5521C109.803 35.5521 109.174 35.7867 108.651 36.2561C108.139 36.7254 107.846 37.3761 107.771 38.2081H113.307ZM115.869 38.8161C115.869 37.9201 116.051 37.1361 116.413 36.4641C116.776 35.7814 117.272 35.2534 117.901 34.8801C118.541 34.5067 119.251 34.3201 120.029 34.3201C120.797 34.3201 121.464 34.4854 122.029 34.8161C122.595 35.1467 123.016 35.5627 123.293 36.0641V34.4641H124.765V43.2321H123.293V41.6001C123.005 42.1121 122.573 42.5387 121.997 42.8801C121.432 43.2107 120.771 43.3761 120.013 43.3761C119.235 43.3761 118.531 43.1841 117.901 42.8001C117.272 42.4161 116.776 41.8774 116.413 41.1841C116.051 40.4907 115.869 39.7014 115.869 38.8161ZM123.293 38.8321C123.293 38.1707 123.16 37.5947 122.893 37.1041C122.627 36.6134 122.264 36.2401 121.805 35.9841C121.357 35.7174 120.861 35.5841 120.317 35.5841C119.773 35.5841 119.277 35.7121 118.829 35.9681C118.381 36.2241 118.024 36.5974 117.757 37.0881C117.491 37.5787 117.357 38.1547 117.357 38.8161C117.357 39.4881 117.491 40.0747 117.757 40.5761C118.024 41.0667 118.381 41.4454 118.829 41.7121C119.277 41.9681 119.773 42.0961 120.317 42.0961C120.861 42.0961 121.357 41.9681 121.805 41.7121C122.264 41.4454 122.627 41.0667 122.893 40.5761C123.16 40.0747 123.293 39.4934 123.293 38.8321ZM130.01 43.3761C129.338 43.3761 128.735 43.2641 128.202 43.0401C127.668 42.8054 127.247 42.4854 126.938 42.0801C126.628 41.6641 126.458 41.1894 126.426 40.6561H127.93C127.972 41.0934 128.175 41.4507 128.538 41.7281C128.911 42.0054 129.396 42.1441 129.994 42.1441C130.548 42.1441 130.986 42.0214 131.306 41.7761C131.626 41.5307 131.786 41.2214 131.786 40.8481C131.786 40.4641 131.615 40.1814 131.274 40.0001C130.932 39.8081 130.404 39.6214 129.69 39.4401C129.039 39.2694 128.506 39.0987 128.09 38.9281C127.684 38.7467 127.332 38.4854 127.034 38.1441C126.746 37.7921 126.602 37.3334 126.602 36.7681C126.602 36.3201 126.735 35.9094 127.002 35.5361C127.268 35.1627 127.647 34.8694 128.138 34.6561C128.628 34.4321 129.188 34.3201 129.818 34.3201C130.788 34.3201 131.572 34.5654 132.17 35.0561C132.767 35.5467 133.087 36.2187 133.13 37.0721H131.674C131.642 36.6134 131.455 36.2454 131.114 35.9681C130.783 35.6907 130.335 35.5521 129.77 35.5521C129.247 35.5521 128.831 35.6641 128.522 35.8881C128.212 36.1121 128.058 36.4054 128.058 36.7681C128.058 37.0561 128.148 37.2961 128.33 37.4881C128.522 37.6694 128.756 37.8187 129.034 37.9361C129.322 38.0427 129.716 38.1654 130.218 38.3041C130.847 38.4747 131.359 38.6454 131.754 38.8161C132.148 38.9761 132.484 39.2214 132.762 39.5521C133.05 39.8827 133.199 40.3147 133.21 40.8481C133.21 41.3281 133.076 41.7601 132.81 42.1441C132.543 42.5281 132.164 42.8321 131.674 43.0561C131.194 43.2694 130.639 43.3761 130.01 43.3761ZM142.945 38.5121C142.945 38.7894 142.929 39.0827 142.897 39.3921H135.889C135.942 40.2561 136.236 40.9334 136.769 41.4241C137.313 41.9041 137.969 42.1441 138.737 42.1441C139.366 42.1441 139.889 42.0001 140.305 41.7121C140.732 41.4134 141.03 41.0187 141.201 40.5281H142.769C142.534 41.3707 142.065 42.0587 141.361 42.5921C140.657 43.1147 139.782 43.3761 138.737 43.3761C137.905 43.3761 137.158 43.1894 136.497 42.8161C135.846 42.4427 135.334 41.9147 134.961 41.2321C134.588 40.5387 134.401 39.7387 134.401 38.8321C134.401 37.9254 134.582 37.1307 134.945 36.4481C135.308 35.7654 135.814 35.2427 136.465 34.8801C137.126 34.5067 137.884 34.3201 138.737 34.3201C139.569 34.3201 140.305 34.5014 140.945 34.8641C141.585 35.2267 142.076 35.7281 142.417 36.3681C142.769 36.9974 142.945 37.7121 142.945 38.5121ZM141.441 38.2081C141.441 37.6534 141.318 37.1787 141.073 36.7841C140.828 36.3787 140.492 36.0747 140.065 35.8721C139.649 35.6587 139.185 35.5521 138.673 35.5521C137.937 35.5521 137.308 35.7867 136.785 36.2561C136.273 36.7254 135.98 37.3761 135.905 38.2081H141.441ZM159.805 32.1601V43.2321H158.349V34.9761L154.669 43.2321H153.645L149.949 34.9601V43.2321H148.493V32.1601H150.061L154.157 41.3121L158.253 32.1601H159.805ZM169.954 38.5121C169.954 38.7894 169.938 39.0827 169.906 39.3921H162.898C162.951 40.2561 163.245 40.9334 163.778 41.4241C164.322 41.9041 164.978 42.1441 165.746 42.1441C166.375 42.1441 166.898 42.0001 167.314 41.7121C167.741 41.4134 168.039 41.0187 168.21 40.5281H169.778C169.543 41.3707 169.074 42.0587 168.37 42.5921C167.666 43.1147 166.791 43.3761 165.746 43.3761C164.914 43.3761 164.167 43.1894 163.506 42.8161C162.855 42.4427 162.343 41.9147 161.97 41.2321C161.597 40.5387 161.41 39.7387 161.41 38.8321C161.41 37.9254 161.591 37.1307 161.954 36.4481C162.317 35.7654 162.823 35.2427 163.474 34.8801C164.135 34.5067 164.893 34.3201 165.746 34.3201C166.578 34.3201 167.314 34.5014 167.954 34.8641C168.594 35.2267 169.085 35.7281 169.426 36.3681C169.778 36.9974 169.954 37.7121 169.954 38.5121ZM168.45 38.2081C168.45 37.6534 168.327 37.1787 168.082 36.7841C167.837 36.3787 167.501 36.0747 167.074 35.8721C166.658 35.6587 166.194 35.5521 165.682 35.5521C164.946 35.5521 164.317 35.7867 163.794 36.2561C163.282 36.7254 162.989 37.3761 162.914 38.2081H168.45ZM175.828 34.3041C176.894 34.3041 177.758 34.6294 178.42 35.2801C179.081 35.9201 179.412 36.8481 179.412 38.0641V43.2321H177.972V38.2721C177.972 37.3974 177.753 36.7307 177.316 36.2721C176.878 35.8027 176.281 35.5681 175.524 35.5681C174.756 35.5681 174.142 35.8081 173.684 36.2881C173.236 36.7681 173.012 37.4667 173.012 38.3841V43.2321H171.556V34.4641H173.012V35.7121C173.3 35.2641 173.689 34.9174 174.18 34.6721C174.681 34.4267 175.23 34.3041 175.828 34.3041ZM183.246 35.6641V40.8321C183.246 41.2587 183.337 41.5627 183.518 41.7441C183.699 41.9147 184.014 42.0001 184.462 42.0001H185.534V43.2321H184.222C183.411 43.2321 182.803 43.0454 182.398 42.6721C181.993 42.2987 181.79 41.6854 181.79 40.8321V35.6641H180.654V34.4641H181.79V32.2561H183.246V34.4641H185.534V35.6641H183.246ZM186.434 38.8161C186.434 37.9201 186.616 37.1361 186.978 36.4641C187.341 35.7814 187.837 35.2534 188.466 34.8801C189.106 34.5067 189.816 34.3201 190.594 34.3201C191.362 34.3201 192.029 34.4854 192.594 34.8161C193.16 35.1467 193.581 35.5627 193.858 36.0641V34.4641H195.33V43.2321H193.858V41.6001C193.57 42.1121 193.138 42.5387 192.562 42.8801C191.997 43.2107 191.336 43.3761 190.578 43.3761C189.8 43.3761 189.096 43.1841 188.466 42.8001C187.837 42.4161 187.341 41.8774 186.978 41.1841C186.616 40.4907 186.434 39.7014 186.434 38.8161ZM193.858 38.8321C193.858 38.1707 193.725 37.5947 193.458 37.1041C193.192 36.6134 192.829 36.2401 192.37 35.9841C191.922 35.7174 191.426 35.5841 190.882 35.5841C190.338 35.5841 189.842 35.7121 189.394 35.9681C188.946 36.2241 188.589 36.5974 188.322 37.0881C188.056 37.5787 187.922 38.1547 187.922 38.8161C187.922 39.4881 188.056 40.0747 188.322 40.5761C188.589 41.0667 188.946 41.4454 189.394 41.7121C189.842 41.9681 190.338 42.0961 190.882 42.0961C191.426 42.0961 191.922 41.9681 192.37 41.7121C192.829 41.4454 193.192 41.0667 193.458 40.5761C193.725 40.0747 193.858 39.4934 193.858 38.8321ZM198.927 31.3921V43.2321H197.471V31.3921H198.927ZM204.49 37.6481C204.49 36.5601 204.735 35.5841 205.226 34.7201C205.717 33.8454 206.383 33.1627 207.226 32.6721C208.079 32.1814 209.023 31.9361 210.058 31.9361C211.274 31.9361 212.335 32.2294 213.242 32.8161C214.149 33.4027 214.81 34.2347 215.226 35.3121H213.482C213.173 34.6401 212.725 34.1227 212.138 33.7601C211.562 33.3974 210.869 33.2161 210.058 33.2161C209.279 33.2161 208.581 33.3974 207.962 33.7601C207.343 34.1227 206.858 34.6401 206.506 35.3121C206.154 35.9734 205.978 36.7521 205.978 37.6481C205.978 38.5334 206.154 39.3121 206.506 39.9841C206.858 40.6454 207.343 41.1574 207.962 41.5201C208.581 41.8827 209.279 42.0641 210.058 42.0641C210.869 42.0641 211.562 41.8881 212.138 41.5361C212.725 41.1734 213.173 40.6561 213.482 39.9841H215.226C214.81 41.0507 214.149 41.8774 213.242 42.4641C212.335 43.0401 211.274 43.3281 210.058 43.3281C209.023 43.3281 208.079 43.0881 207.226 42.6081C206.383 42.1174 205.717 41.4401 205.226 40.5761C204.735 39.7121 204.49 38.7361 204.49 37.6481ZM218.529 31.3921V43.2321H217.073V31.3921H218.529ZM220.147 38.8161C220.147 37.9201 220.328 37.1361 220.691 36.4641C221.053 35.7814 221.549 35.2534 222.179 34.8801C222.819 34.5067 223.528 34.3201 224.307 34.3201C225.075 34.3201 225.741 34.4854 226.307 34.8161C226.872 35.1467 227.293 35.5627 227.571 36.0641V34.4641H229.043V43.2321H227.571V41.6001C227.283 42.1121 226.851 42.5387 226.275 42.8801C225.709 43.2107 225.048 43.3761 224.291 43.3761C223.512 43.3761 222.808 43.1841 222.179 42.8001C221.549 42.4161 221.053 41.8774 220.691 41.1841C220.328 40.4907 220.147 39.7014 220.147 38.8161ZM227.571 38.8321C227.571 38.1707 227.437 37.5947 227.171 37.1041C226.904 36.6134 226.541 36.2401 226.083 35.9841C225.635 35.7174 225.139 35.5841 224.595 35.5841C224.051 35.5841 223.555 35.7121 223.107 35.9681C222.659 36.2241 222.301 36.5974 222.035 37.0881C221.768 37.5787 221.635 38.1547 221.635 38.8161C221.635 39.4881 221.768 40.0747 222.035 40.5761C222.301 41.0667 222.659 41.4454 223.107 41.7121C223.555 41.9681 224.051 42.0961 224.595 42.0961C225.139 42.0961 225.635 41.9681 226.083 41.7121C226.541 41.4454 226.904 41.0667 227.171 40.5761C227.437 40.0747 227.571 39.4934 227.571 38.8321ZM232.639 35.8881C232.895 35.3867 233.258 34.9974 233.727 34.7201C234.207 34.4427 234.789 34.3041 235.471 34.3041V35.8081H235.087C233.455 35.8081 232.639 36.6934 232.639 38.4641V43.2321H231.183V34.4641H232.639V35.8881ZM237.584 33.0401C237.307 33.0401 237.072 32.9441 236.88 32.7521C236.688 32.5601 236.592 32.3254 236.592 32.0481C236.592 31.7707 236.688 31.5361 236.88 31.3441C237.072 31.1521 237.307 31.0561 237.584 31.0561C237.851 31.0561 238.075 31.1521 238.256 31.3441C238.448 31.5361 238.544 31.7707 238.544 32.0481C238.544 32.3254 238.448 32.5601 238.256 32.7521C238.075 32.9441 237.851 33.0401 237.584 33.0401ZM238.288 34.4641V43.2321H236.832V34.4641H238.288ZM242.225 35.6641V40.8321C242.225 41.2587 242.316 41.5627 242.497 41.7441C242.679 41.9147 242.993 42.0001 243.441 42.0001H244.513V43.2321H243.201C242.391 43.2321 241.783 43.0454 241.377 42.6721C240.972 42.2987 240.769 41.6854 240.769 40.8321V35.6641H239.633V34.4641H240.769V32.2561H242.225V34.4641H244.513V35.6641H242.225ZM253.51 34.4641L248.23 47.3601H246.726L248.454 43.1361L244.918 34.4641H246.534L249.286 41.5681L252.006 34.4641H253.51Z" fill="#1E1E1E"/>
<circle cx="317" cy="37.2321" r="9.25" stroke="#1E1E1E" stroke-width="1.5"/>
<defs>
<clipPath id="clip0_3933_13265">
<rect width="25.1192" height="24.6533" fill="white" transform="translate(24.4404 24.9054)"/>
</clipPath>
</defs>
</svg>
