<svg width="343" height="75" viewBox="0 0 343 75" fill="none" xmlns="http://www.w3.org/2000/svg">
<rect width="343" height="74.4641" rx="22" fill="#F9F8F4"/>
<rect x="5" y="4.9054" width="64" height="64.6533" rx="32" fill="#BCC9D6"/>
<g opacity="0.2" clip-path="url(#clip0_3933_13316)">
<path d="M36.2047 49.5588C35.8618 49.5576 35.5233 49.4833 35.2125 49.341C34.7049 49.1192 34.2972 48.7231 34.066 48.2272C33.8348 47.7313 33.7959 47.1697 33.9566 46.6476L35.5904 41.341H31.7409C31.2504 41.3416 30.7666 41.2294 30.3283 41.0134C29.89 40.7975 29.5093 40.4837 29.2168 40.0974C28.9243 39.711 28.728 39.2628 28.6438 38.7886C28.5596 38.3144 28.5897 37.8274 28.7318 37.3667L31.8968 27.0945C32.0897 26.4591 32.4874 25.9023 33.0301 25.5076C33.5729 25.1129 34.2314 24.9016 34.9069 24.9054H38.7721C39.2115 24.9058 39.6442 25.0106 40.0333 25.2107C40.4224 25.4109 40.7563 25.7006 41.0065 26.055C41.2568 26.4094 41.4159 26.818 41.4702 27.2459C41.5245 27.6738 41.4725 28.1082 41.3186 28.512L39.5571 33.1232H42.2333C42.8038 33.1232 43.3635 33.2757 43.8523 33.5643C44.3411 33.853 44.7406 34.2669 45.0078 34.7615C45.275 35.2562 45.3998 35.813 45.3689 36.3721C45.3379 36.9311 45.1524 37.4714 44.8321 37.9347L38.1337 48.5151C37.9266 48.8334 37.6416 49.0957 37.3046 49.278C36.9676 49.4603 36.5895 49.5569 36.2047 49.5588Z" fill="#1E1E1E"/>
</g>
<path d="M79.688 32.0801V43.2321H78.232V32.0801H79.688ZM86.1215 34.3041C87.1882 34.3041 88.0522 34.6294 88.7135 35.2801C89.3748 35.9201 89.7055 36.8481 89.7055 38.0641V43.2321H88.2655V38.2721C88.2655 37.3974 88.0468 36.7307 87.6095 36.2721C87.1722 35.8027 86.5748 35.5681 85.8175 35.5681C85.0495 35.5681 84.4362 35.8081 83.9775 36.2881C83.5295 36.7681 83.3055 37.4667 83.3055 38.3841V43.2321H81.8495V34.4641H83.3055V35.7121C83.5935 35.2641 83.9828 34.9174 84.4735 34.6721C84.9748 34.4267 85.5242 34.3041 86.1215 34.3041ZM91.2199 38.8321C91.2199 37.9254 91.4012 37.1361 91.7639 36.4641C92.1265 35.7814 92.6279 35.2534 93.2679 34.8801C93.9185 34.5067 94.6599 34.3201 95.4919 34.3201C96.5692 34.3201 97.4545 34.5814 98.1479 35.1041C98.8519 35.6267 99.3159 36.3521 99.5399 37.2801H97.9719C97.8225 36.7467 97.5292 36.3254 97.0919 36.0161C96.6652 35.7067 96.1319 35.5521 95.4919 35.5521C94.6599 35.5521 93.9879 35.8401 93.4759 36.4161C92.9639 36.9814 92.7079 37.7867 92.7079 38.8321C92.7079 39.8881 92.9639 40.7041 93.4759 41.2801C93.9879 41.8561 94.6599 42.1441 95.4919 42.1441C96.1319 42.1441 96.6652 41.9947 97.0919 41.6961C97.5185 41.3974 97.8119 40.9707 97.9719 40.4161H99.5399C99.3052 41.3121 98.8359 42.0321 98.1319 42.5761C97.4279 43.1094 96.5479 43.3761 95.4919 43.3761C94.6599 43.3761 93.9185 43.1894 93.2679 42.8161C92.6279 42.4427 92.1265 41.9147 91.7639 41.2321C91.4012 40.5494 91.2199 39.7494 91.2199 38.8321ZM102.619 35.8881C102.875 35.3867 103.237 34.9974 103.707 34.7201C104.187 34.4427 104.768 34.3041 105.451 34.3041V35.8081H105.067C103.435 35.8081 102.619 36.6934 102.619 38.4641V43.2321H101.163V34.4641H102.619V35.8881ZM114.811 38.5121C114.811 38.7894 114.795 39.0827 114.763 39.3921H107.755C107.809 40.2561 108.102 40.9334 108.635 41.4241C109.179 41.9041 109.835 42.1441 110.603 42.1441C111.233 42.1441 111.755 42.0001 112.171 41.7121C112.598 41.4134 112.897 41.0187 113.067 40.5281H114.635C114.401 41.3707 113.931 42.0587 113.227 42.5921C112.523 43.1147 111.649 43.3761 110.603 43.3761C109.771 43.3761 109.025 43.1894 108.363 42.8161C107.713 42.4427 107.201 41.9147 106.827 41.2321C106.454 40.5387 106.267 39.7387 106.267 38.8321C106.267 37.9254 106.449 37.1307 106.811 36.4481C107.174 35.7654 107.681 35.2427 108.331 34.8801C108.993 34.5067 109.75 34.3201 110.603 34.3201C111.435 34.3201 112.171 34.5014 112.811 34.8641C113.451 35.2267 113.942 35.7281 114.283 36.3681C114.635 36.9974 114.811 37.7121 114.811 38.5121ZM113.307 38.2081C113.307 37.6534 113.185 37.1787 112.939 36.7841C112.694 36.3787 112.358 36.0747 111.931 35.8721C111.515 35.6587 111.051 35.5521 110.539 35.5521C109.803 35.5521 109.174 35.7867 108.651 36.2561C108.139 36.7254 107.846 37.3761 107.771 38.2081H113.307ZM115.869 38.8161C115.869 37.9201 116.051 37.1361 116.413 36.4641C116.776 35.7814 117.272 35.2534 117.901 34.8801C118.541 34.5067 119.251 34.3201 120.029 34.3201C120.797 34.3201 121.464 34.4854 122.029 34.8161C122.595 35.1467 123.016 35.5627 123.293 36.0641V34.4641H124.765V43.2321H123.293V41.6001C123.005 42.1121 122.573 42.5387 121.997 42.8801C121.432 43.2107 120.771 43.3761 120.013 43.3761C119.235 43.3761 118.531 43.1841 117.901 42.8001C117.272 42.4161 116.776 41.8774 116.413 41.1841C116.051 40.4907 115.869 39.7014 115.869 38.8161ZM123.293 38.8321C123.293 38.1707 123.16 37.5947 122.893 37.1041C122.627 36.6134 122.264 36.2401 121.805 35.9841C121.357 35.7174 120.861 35.5841 120.317 35.5841C119.773 35.5841 119.277 35.7121 118.829 35.9681C118.381 36.2241 118.024 36.5974 117.757 37.0881C117.491 37.5787 117.357 38.1547 117.357 38.8161C117.357 39.4881 117.491 40.0747 117.757 40.5761C118.024 41.0667 118.381 41.4454 118.829 41.7121C119.277 41.9681 119.773 42.0961 120.317 42.0961C120.861 42.0961 121.357 41.9681 121.805 41.7121C122.264 41.4454 122.627 41.0667 122.893 40.5761C123.16 40.0747 123.293 39.4934 123.293 38.8321ZM130.01 43.3761C129.338 43.3761 128.735 43.2641 128.202 43.0401C127.668 42.8054 127.247 42.4854 126.938 42.0801C126.628 41.6641 126.458 41.1894 126.426 40.6561H127.93C127.972 41.0934 128.175 41.4507 128.538 41.7281C128.911 42.0054 129.396 42.1441 129.994 42.1441C130.548 42.1441 130.986 42.0214 131.306 41.7761C131.626 41.5307 131.786 41.2214 131.786 40.8481C131.786 40.4641 131.615 40.1814 131.274 40.0001C130.932 39.8081 130.404 39.6214 129.69 39.4401C129.039 39.2694 128.506 39.0987 128.09 38.9281C127.684 38.7467 127.332 38.4854 127.034 38.1441C126.746 37.7921 126.602 37.3334 126.602 36.7681C126.602 36.3201 126.735 35.9094 127.002 35.5361C127.268 35.1627 127.647 34.8694 128.138 34.6561C128.628 34.4321 129.188 34.3201 129.818 34.3201C130.788 34.3201 131.572 34.5654 132.17 35.0561C132.767 35.5467 133.087 36.2187 133.13 37.0721H131.674C131.642 36.6134 131.455 36.2454 131.114 35.9681C130.783 35.6907 130.335 35.5521 129.77 35.5521C129.247 35.5521 128.831 35.6641 128.522 35.8881C128.212 36.1121 128.058 36.4054 128.058 36.7681C128.058 37.0561 128.148 37.2961 128.33 37.4881C128.522 37.6694 128.756 37.8187 129.034 37.9361C129.322 38.0427 129.716 38.1654 130.218 38.3041C130.847 38.4747 131.359 38.6454 131.754 38.8161C132.148 38.9761 132.484 39.2214 132.762 39.5521C133.05 39.8827 133.199 40.3147 133.21 40.8481C133.21 41.3281 133.076 41.7601 132.81 42.1441C132.543 42.5281 132.164 42.8321 131.674 43.0561C131.194 43.2694 130.639 43.3761 130.01 43.3761ZM142.945 38.5121C142.945 38.7894 142.929 39.0827 142.897 39.3921H135.889C135.942 40.2561 136.236 40.9334 136.769 41.4241C137.313 41.9041 137.969 42.1441 138.737 42.1441C139.366 42.1441 139.889 42.0001 140.305 41.7121C140.732 41.4134 141.03 41.0187 141.201 40.5281H142.769C142.534 41.3707 142.065 42.0587 141.361 42.5921C140.657 43.1147 139.782 43.3761 138.737 43.3761C137.905 43.3761 137.158 43.1894 136.497 42.8161C135.846 42.4427 135.334 41.9147 134.961 41.2321C134.588 40.5387 134.401 39.7387 134.401 38.8321C134.401 37.9254 134.582 37.1307 134.945 36.4481C135.308 35.7654 135.814 35.2427 136.465 34.8801C137.126 34.5067 137.884 34.3201 138.737 34.3201C139.569 34.3201 140.305 34.5014 140.945 34.8641C141.585 35.2267 142.076 35.7281 142.417 36.3681C142.769 36.9974 142.945 37.7121 142.945 38.5121ZM141.441 38.2081C141.441 37.6534 141.318 37.1787 141.073 36.7841C140.828 36.3787 140.492 36.0747 140.065 35.8721C139.649 35.6587 139.185 35.5521 138.673 35.5521C137.937 35.5521 137.308 35.7867 136.785 36.2561C136.273 36.7254 135.98 37.3761 135.905 38.2081H141.441ZM149.949 33.2641V36.9921H154.013V38.1921H149.949V42.0321H154.493V43.2321H148.493V32.0641H154.493V33.2641H149.949ZM160.648 34.3041C161.714 34.3041 162.578 34.6294 163.24 35.2801C163.901 35.9201 164.232 36.8481 164.232 38.0641V43.2321H162.792V38.2721C162.792 37.3974 162.573 36.7307 162.136 36.2721C161.698 35.8027 161.101 35.5681 160.344 35.5681C159.576 35.5681 158.962 35.8081 158.504 36.2881C158.056 36.7681 157.832 37.4667 157.832 38.3841V43.2321H156.376V34.4641H157.832V35.7121C158.12 35.2641 158.509 34.9174 159 34.6721C159.501 34.4267 160.05 34.3041 160.648 34.3041ZM174.29 38.5121C174.29 38.7894 174.274 39.0827 174.242 39.3921H167.234C167.287 40.2561 167.581 40.9334 168.114 41.4241C168.658 41.9041 169.314 42.1441 170.082 42.1441C170.711 42.1441 171.234 42.0001 171.65 41.7121C172.077 41.4134 172.375 41.0187 172.546 40.5281H174.114C173.879 41.3707 173.41 42.0587 172.706 42.5921C172.002 43.1147 171.127 43.3761 170.082 43.3761C169.25 43.3761 168.503 43.1894 167.842 42.8161C167.191 42.4427 166.679 41.9147 166.306 41.2321C165.933 40.5387 165.746 39.7387 165.746 38.8321C165.746 37.9254 165.927 37.1307 166.29 36.4481C166.653 35.7654 167.159 35.2427 167.81 34.8801C168.471 34.5067 169.229 34.3201 170.082 34.3201C170.914 34.3201 171.65 34.5014 172.29 34.8641C172.93 35.2267 173.421 35.7281 173.762 36.3681C174.114 36.9974 174.29 37.7121 174.29 38.5121ZM172.786 38.2081C172.786 37.6534 172.663 37.1787 172.418 36.7841C172.173 36.3787 171.837 36.0747 171.41 35.8721C170.994 35.6587 170.53 35.5521 170.018 35.5521C169.282 35.5521 168.653 35.7867 168.13 36.2561C167.618 36.7254 167.325 37.3761 167.25 38.2081H172.786ZM177.348 35.8881C177.604 35.3867 177.967 34.9974 178.436 34.7201C178.916 34.4427 179.497 34.3041 180.18 34.3041V35.8081H179.796C178.164 35.8081 177.348 36.6934 177.348 38.4641V43.2321H175.892V34.4641H177.348V35.8881ZM185.157 34.3201C185.914 34.3201 186.575 34.4854 187.141 34.8161C187.717 35.1467 188.143 35.5627 188.421 36.0641V34.4641H189.893V43.4241C189.893 44.2241 189.722 44.9334 189.381 45.5521C189.039 46.1814 188.549 46.6721 187.909 47.0241C187.279 47.3761 186.543 47.5521 185.701 47.5521C184.549 47.5521 183.589 47.2801 182.821 46.7361C182.053 46.1921 181.599 45.4507 181.461 44.5121H182.901C183.061 45.0454 183.391 45.4721 183.893 45.7921C184.394 46.1227 184.997 46.2881 185.701 46.2881C186.501 46.2881 187.151 46.0374 187.653 45.5361C188.165 45.0347 188.421 44.3307 188.421 43.4241V41.5841C188.133 42.0961 187.706 42.5227 187.141 42.8641C186.575 43.2054 185.914 43.3761 185.157 43.3761C184.378 43.3761 183.669 43.1841 183.029 42.8001C182.399 42.4161 181.903 41.8774 181.541 41.1841C181.178 40.4907 180.997 39.7014 180.997 38.8161C180.997 37.9201 181.178 37.1361 181.541 36.4641C181.903 35.7814 182.399 35.2534 183.029 34.8801C183.669 34.5067 184.378 34.3201 185.157 34.3201ZM188.421 38.8321C188.421 38.1707 188.287 37.5947 188.021 37.1041C187.754 36.6134 187.391 36.2401 186.933 35.9841C186.485 35.7174 185.989 35.5841 185.445 35.5841C184.901 35.5841 184.405 35.7121 183.957 35.9681C183.509 36.2241 183.151 36.5974 182.885 37.0881C182.618 37.5787 182.485 38.1547 182.485 38.8161C182.485 39.4881 182.618 40.0747 182.885 40.5761C183.151 41.0667 183.509 41.4454 183.957 41.7121C184.405 41.9681 184.901 42.0961 185.445 42.0961C185.989 42.0961 186.485 41.9681 186.933 41.7121C187.391 41.4454 187.754 41.0667 188.021 40.5761C188.287 40.0747 188.421 39.4934 188.421 38.8321ZM199.585 34.4641L194.305 47.3601H192.801L194.529 43.1361L190.993 34.4641H192.609L195.361 41.5681L198.081 34.4641H199.585Z" fill="#1E1E1E"/>
<circle cx="317" cy="37.2321" r="9.25" stroke="#1E1E1E" stroke-width="1.5"/>
<defs>
<clipPath id="clip0_3933_13316">
<rect width="25.1192" height="24.6533" fill="white" transform="translate(24.4404 24.9054)"/>
</clipPath>
</defs>
</svg>
