<svg width="343" height="75" viewBox="0 0 343 75" fill="none" xmlns="http://www.w3.org/2000/svg">
<rect width="343" height="74.4641" rx="22" fill="#F9F8F4"/>
<rect x="5" y="4.9054" width="64" height="64.6533" rx="32" fill="#C9D6BC"/>
<g opacity="0.2" clip-path="url(#clip0_3933_13264)">
<path d="M43.8879 27.1039L37.3308 24.958C37.1161 24.8879 36.884 24.8879 36.6693 24.958L30.1121 27.1039C29.0696 27.4438 28.1627 28.0975 27.5203 28.9721C26.8779 29.8467 26.5327 30.8978 26.5337 31.976V37.2323C26.5337 45.0012 36.1627 49.2919 36.5751 49.4706C36.7089 49.529 36.8536 49.5591 37 49.5591C37.1464 49.5591 37.2912 49.529 37.4249 49.4706C37.8373 49.2919 47.4663 45.0012 47.4663 37.2323V31.976C47.4673 30.8978 47.1221 29.8467 46.4797 28.9721C45.8373 28.0975 44.9304 27.4438 43.8879 27.1039ZM40.1399 37.2323H38.0466V39.2868C38.0466 39.5592 37.9364 39.8205 37.7401 40.0131C37.5438 40.2058 37.2776 40.314 37 40.314C36.7224 40.314 36.4562 40.2058 36.2599 40.0131C36.0637 39.8205 35.9534 39.5592 35.9534 39.2868V37.2323H33.8601C33.5825 37.2323 33.3163 37.1241 33.12 36.9314C32.9238 36.7388 32.8135 36.4775 32.8135 36.2051C32.8135 35.9327 32.9238 35.6714 33.12 35.4787C33.3163 35.2861 33.5825 35.1779 33.8601 35.1779H35.9534V33.1234C35.9534 32.851 36.0637 32.5897 36.2599 32.3971C36.4562 32.2044 36.7224 32.0962 37 32.0962C37.2776 32.0962 37.5438 32.2044 37.7401 32.3971C37.9364 32.5897 38.0466 32.851 38.0466 33.1234V35.1779H40.1399C40.4175 35.1779 40.6837 35.2861 40.88 35.4787C41.0763 35.6714 41.1865 35.9327 41.1865 36.2051C41.1865 36.4775 41.0763 36.7388 40.88 36.9314C40.6837 37.1241 40.4175 37.2323 40.1399 37.2323Z" fill="#1E1E1E"/>
</g>
<path d="M83.816 37.4881C84.2213 37.5521 84.5893 37.7174 84.92 37.9841C85.2613 38.2507 85.528 38.5814 85.72 38.9761C85.9227 39.3707 86.024 39.7921 86.024 40.2401C86.024 40.8054 85.88 41.3174 85.592 41.7761C85.304 42.2241 84.8827 42.5814 84.328 42.8481C83.784 43.1041 83.1387 43.2321 82.392 43.2321H78.232V32.0801H82.232C82.9893 32.0801 83.6347 32.2081 84.168 32.4641C84.7013 32.7094 85.1013 33.0454 85.368 33.4721C85.6347 33.8987 85.768 34.3787 85.768 34.9121C85.768 35.5734 85.5867 36.1227 85.224 36.5601C84.872 36.9867 84.4027 37.2961 83.816 37.4881ZM79.688 36.8961H82.136C82.8187 36.8961 83.3467 36.7361 83.72 36.4161C84.0933 36.0961 84.28 35.6534 84.28 35.0881C84.28 34.5227 84.0933 34.0801 83.72 33.7601C83.3467 33.4401 82.808 33.2801 82.104 33.2801H79.688V36.8961ZM82.264 42.0321C82.9893 42.0321 83.5547 41.8614 83.96 41.5201C84.3653 41.1787 84.568 40.7041 84.568 40.0961C84.568 39.4774 84.3547 38.9921 83.928 38.6401C83.5013 38.2774 82.9307 38.0961 82.216 38.0961H79.688V42.0321H82.264ZM91.5485 43.3761C90.7272 43.3761 89.9805 43.1894 89.3085 42.8161C88.6472 42.4427 88.1245 41.9147 87.7405 41.2321C87.3672 40.5387 87.1805 39.7387 87.1805 38.8321C87.1805 37.9361 87.3725 37.1467 87.7565 36.4641C88.1512 35.7707 88.6845 35.2427 89.3565 34.8801C90.0285 34.5067 90.7805 34.3201 91.6125 34.3201C92.4445 34.3201 93.1965 34.5067 93.8685 34.8801C94.5405 35.2427 95.0685 35.7654 95.4525 36.4481C95.8472 37.1307 96.0445 37.9254 96.0445 38.8321C96.0445 39.7387 95.8418 40.5387 95.4365 41.2321C95.0418 41.9147 94.5032 42.4427 93.8205 42.8161C93.1378 43.1894 92.3805 43.3761 91.5485 43.3761ZM91.5485 42.0961C92.0712 42.0961 92.5618 41.9734 93.0205 41.7281C93.4792 41.4827 93.8472 41.1147 94.1245 40.6241C94.4125 40.1334 94.5565 39.5361 94.5565 38.8321C94.5565 38.1281 94.4178 37.5307 94.1405 37.0401C93.8632 36.5494 93.5005 36.1867 93.0525 35.9521C92.6045 35.7067 92.1192 35.5841 91.5965 35.5841C91.0632 35.5841 90.5725 35.7067 90.1245 35.9521C89.6872 36.1867 89.3352 36.5494 89.0685 37.0401C88.8018 37.5307 88.6685 38.1281 88.6685 38.8321C88.6685 39.5467 88.7965 40.1494 89.0525 40.6401C89.3192 41.1307 89.6712 41.4987 90.1085 41.7441C90.5458 41.9787 91.0258 42.0961 91.5485 42.0961ZM101.463 43.3761C100.642 43.3761 99.8949 43.1894 99.2229 42.8161C98.5615 42.4427 98.0389 41.9147 97.6549 41.2321C97.2815 40.5387 97.0949 39.7387 97.0949 38.8321C97.0949 37.9361 97.2869 37.1467 97.6709 36.4641C98.0655 35.7707 98.5989 35.2427 99.2709 34.8801C99.9429 34.5067 100.695 34.3201 101.527 34.3201C102.359 34.3201 103.111 34.5067 103.783 34.8801C104.455 35.2427 104.983 35.7654 105.367 36.4481C105.762 37.1307 105.959 37.9254 105.959 38.8321C105.959 39.7387 105.756 40.5387 105.351 41.2321C104.956 41.9147 104.418 42.4427 103.735 42.8161C103.052 43.1894 102.295 43.3761 101.463 43.3761ZM101.463 42.0961C101.986 42.0961 102.476 41.9734 102.935 41.7281C103.394 41.4827 103.762 41.1147 104.039 40.6241C104.327 40.1334 104.471 39.5361 104.471 38.8321C104.471 38.1281 104.332 37.5307 104.055 37.0401C103.778 36.5494 103.415 36.1867 102.967 35.9521C102.519 35.7067 102.034 35.5841 101.511 35.5841C100.978 35.5841 100.487 35.7067 100.039 35.9521C99.6015 36.1867 99.2495 36.5494 98.9829 37.0401C98.7162 37.5307 98.5829 38.1281 98.5829 38.8321C98.5829 39.5467 98.7109 40.1494 98.9669 40.6401C99.2335 41.1307 99.5855 41.4987 100.023 41.7441C100.46 41.9787 100.94 42.0961 101.463 42.0961ZM110.657 43.3761C109.985 43.3761 109.383 43.2641 108.849 43.0401C108.316 42.8054 107.895 42.4854 107.585 42.0801C107.276 41.6641 107.105 41.1894 107.073 40.6561H108.577C108.62 41.0934 108.823 41.4507 109.185 41.7281C109.559 42.0054 110.044 42.1441 110.641 42.1441C111.196 42.1441 111.633 42.0214 111.953 41.7761C112.273 41.5307 112.433 41.2214 112.433 40.8481C112.433 40.4641 112.263 40.1814 111.921 40.0001C111.58 39.8081 111.052 39.6214 110.337 39.4401C109.687 39.2694 109.153 39.0987 108.737 38.9281C108.332 38.7467 107.98 38.4854 107.681 38.1441C107.393 37.7921 107.249 37.3334 107.249 36.7681C107.249 36.3201 107.383 35.9094 107.649 35.5361C107.916 35.1627 108.295 34.8694 108.785 34.6561C109.276 34.4321 109.836 34.3201 110.465 34.3201C111.436 34.3201 112.22 34.5654 112.817 35.0561C113.415 35.5467 113.735 36.2187 113.777 37.0721H112.321C112.289 36.6134 112.103 36.2454 111.761 35.9681C111.431 35.6907 110.983 35.5521 110.417 35.5521C109.895 35.5521 109.479 35.6641 109.169 35.8881C108.86 36.1121 108.705 36.4054 108.705 36.7681C108.705 37.0561 108.796 37.2961 108.977 37.4881C109.169 37.6694 109.404 37.8187 109.681 37.9361C109.969 38.0427 110.364 38.1654 110.865 38.3041C111.495 38.4747 112.007 38.6454 112.401 38.8161C112.796 38.9761 113.132 39.2214 113.409 39.5521C113.697 39.8827 113.847 40.3147 113.857 40.8481C113.857 41.3281 113.724 41.7601 113.457 42.1441C113.191 42.5281 112.812 42.8321 112.321 43.0561C111.841 43.2694 111.287 43.3761 110.657 43.3761ZM117.369 35.6641V40.8321C117.369 41.2587 117.459 41.5627 117.641 41.7441C117.822 41.9147 118.137 42.0001 118.585 42.0001H119.657V43.2321H118.345C117.534 43.2321 116.926 43.0454 116.521 42.6721C116.115 42.2987 115.913 41.6854 115.913 40.8321V35.6641H114.777V34.4641H115.913V32.2561H117.369V34.4641H119.657V35.6641H117.369ZM126.502 32.0801V43.2321H125.046V32.0801H126.502ZM139.208 34.3041C139.891 34.3041 140.499 34.4481 141.032 34.7361C141.565 35.0134 141.987 35.4347 142.296 36.0001C142.605 36.5654 142.76 37.2534 142.76 38.0641V43.2321H141.32V38.2721C141.32 37.3974 141.101 36.7307 140.664 36.2721C140.237 35.8027 139.656 35.5681 138.92 35.5681C138.163 35.5681 137.56 35.8134 137.112 36.3041C136.664 36.7841 136.44 37.4827 136.44 38.4001V43.2321H135V38.2721C135 37.3974 134.781 36.7307 134.344 36.2721C133.917 35.8027 133.336 35.5681 132.6 35.5681C131.843 35.5681 131.24 35.8134 130.792 36.3041C130.344 36.7841 130.12 37.4827 130.12 38.4001V43.2321H128.664V34.4641H130.12V35.7281C130.408 35.2694 130.792 34.9174 131.272 34.6721C131.763 34.4267 132.301 34.3041 132.888 34.3041C133.624 34.3041 134.275 34.4694 134.84 34.8001C135.405 35.1307 135.827 35.6161 136.104 36.2561C136.349 35.6374 136.755 35.1574 137.32 34.8161C137.885 34.4747 138.515 34.3041 139.208 34.3041ZM155.372 34.3041C156.055 34.3041 156.663 34.4481 157.196 34.7361C157.73 35.0134 158.151 35.4347 158.46 36.0001C158.77 36.5654 158.924 37.2534 158.924 38.0641V43.2321H157.484V38.2721C157.484 37.3974 157.266 36.7307 156.828 36.2721C156.402 35.8027 155.82 35.5681 155.084 35.5681C154.327 35.5681 153.724 35.8134 153.276 36.3041C152.828 36.7841 152.604 37.4827 152.604 38.4001V43.2321H151.164V38.2721C151.164 37.3974 150.946 36.7307 150.508 36.2721C150.082 35.8027 149.5 35.5681 148.764 35.5681C148.007 35.5681 147.404 35.8134 146.956 36.3041C146.508 36.7841 146.284 37.4827 146.284 38.4001V43.2321H144.828V34.4641H146.284V35.7281C146.572 35.2694 146.956 34.9174 147.436 34.6721C147.927 34.4267 148.466 34.3041 149.052 34.3041C149.788 34.3041 150.439 34.4694 151.004 34.8001C151.57 35.1307 151.991 35.6161 152.268 36.2561C152.514 35.6374 152.919 35.1574 153.484 34.8161C154.05 34.4747 154.679 34.3041 155.372 34.3041ZM168.769 34.4641V43.2321H167.313V41.9361C167.035 42.3841 166.646 42.7361 166.145 42.9921C165.654 43.2374 165.11 43.3601 164.513 43.3601C163.83 43.3601 163.217 43.2214 162.673 42.9441C162.129 42.6561 161.697 42.2294 161.377 41.6641C161.067 41.0987 160.913 40.4107 160.913 39.6001V34.4641H162.353V39.4081C162.353 40.2721 162.571 40.9387 163.009 41.4081C163.446 41.8667 164.043 42.0961 164.801 42.0961C165.579 42.0961 166.193 41.8561 166.641 41.3761C167.089 40.8961 167.313 40.1974 167.313 39.2801V34.4641H168.769ZM175.179 34.3041C176.246 34.3041 177.11 34.6294 177.771 35.2801C178.432 35.9201 178.763 36.8481 178.763 38.0641V43.2321H177.323V38.2721C177.323 37.3974 177.104 36.7307 176.667 36.2721C176.23 35.8027 175.632 35.5681 174.875 35.5681C174.107 35.5681 173.494 35.8081 173.035 36.2881C172.587 36.7681 172.363 37.4667 172.363 38.3841V43.2321H170.907V34.4641H172.363V35.7121C172.651 35.2641 173.04 34.9174 173.531 34.6721C174.032 34.4267 174.582 34.3041 175.179 34.3041ZM181.573 33.0401C181.296 33.0401 181.061 32.9441 180.869 32.7521C180.677 32.5601 180.581 32.3254 180.581 32.0481C180.581 31.7707 180.677 31.5361 180.869 31.3441C181.061 31.1521 181.296 31.0561 181.573 31.0561C181.84 31.0561 182.064 31.1521 182.245 31.3441C182.437 31.5361 182.533 31.7707 182.533 32.0481C182.533 32.3254 182.437 32.5601 182.245 32.7521C182.064 32.9441 181.84 33.0401 181.573 33.0401ZM182.277 34.4641V43.2321H180.821V34.4641H182.277ZM186.215 35.6641V40.8321C186.215 41.2587 186.306 41.5627 186.487 41.7441C186.668 41.9147 186.983 42.0001 187.431 42.0001H188.503V43.2321H187.191C186.38 43.2321 185.772 43.0454 185.367 42.6721C184.962 42.2987 184.759 41.6854 184.759 40.8321V35.6641H183.623V34.4641H184.759V32.2561H186.215V34.4641H188.503V35.6641H186.215ZM197.499 34.4641L192.219 47.3601H190.715L192.443 43.1361L188.907 34.4641H190.523L193.275 41.5681L195.995 34.4641H197.499Z" fill="#1E1E1E"/>
<circle cx="317" cy="37.2321" r="9.25" fill="#1E1E1E" stroke="#1E1E1E" stroke-width="1.5"/>
<circle cx="317" cy="37.2321" r="4" fill="#F9F8F4"/>
<defs>
<clipPath id="clip0_3933_13264">
<rect width="25.1192" height="24.6533" fill="white" transform="translate(24.4404 24.9054)"/>
</clipPath>
</defs>
</svg>
